<?xml version="1.0" encoding="UTF-8" standalone="no"?>
<!-- Created with Inkscape (http://www.inkscape.org/) -->

<svg
   width="256"
   height="256"
   viewBox="0 0 67.733335 67.733333"
   version="1.1"
   id="svg1"
   inkscape:version="1.4.2 (f4327f4, 2025-05-13)"
   sodipodi:docname="default album art.svg"
   xmlns:inkscape="http://www.inkscape.org/namespaces/inkscape"
   xmlns:sodipodi="http://sodipodi.sourceforge.net/DTD/sodipodi-0.dtd"
   xmlns="http://www.w3.org/2000/svg"
   xmlns:svg="http://www.w3.org/2000/svg">
  <sodipodi:namedview
     id="namedview1"
     pagecolor="#273537"
     bordercolor="#000000"
     borderopacity="0.25"
     inkscape:showpageshadow="2"
     inkscape:pageopacity="0.0"
     inkscape:pagecheckerboard="0"
     inkscape:deskcolor="#d1d1d1"
     inkscape:document-units="px"
     inkscape:zoom="2.7545174"
     inkscape:cx="200.5796"
     inkscape:cy="167.906"
     inkscape:window-width="1920"
     inkscape:window-height="991"
     inkscape:window-x="-9"
     inkscape:window-y="-9"
     inkscape:window-maximized="1"
     inkscape:current-layer="layer1" />
  <defs
     id="defs1">
    <inkscape:path-effect
       effect="powerclip"
       message=""
       id="path-effect6"
       is_visible="true"
       lpeversion="1"
       inverse="true"
       flatten="false"
       hide_clip="false" />
    <inkscape:path-effect
       effect="powerclip"
       message=""
       id="path-effect5"
       is_visible="true"
       lpeversion="1"
       inverse="true"
       flatten="false"
       hide_clip="false" />
    <clipPath
       clipPathUnits="userSpaceOnUse"
       id="clipPath5">
      <circle
         style="display:none;fill:#c5c5c5;stroke-width:0.386973"
         id="ellipse5"
         cx="33.866669"
         cy="33.866669"
         r="4.2497196" />
      <path
         id="lpe_path-effect6"
         style="display:block;fill:#c5c5c5;stroke-width:0.386973"
         class="powerclip"
         d="M 14.458517,14.458517 H 53.27482 V 53.27482 H 14.458517 Z m 23.657871,19.408152 a 4.2497196,4.2497196 0 0 0 -4.249719,-4.24972 4.2497196,4.2497196 0 0 0 -4.24972,4.24972 4.2497196,4.2497196 0 0 0 4.24972,4.249719 4.2497196,4.2497196 0 0 0 4.249719,-4.249719 z" />
    </clipPath>
  </defs>
  <g
     inkscape:label="Layer 1"
     inkscape:groupmode="layer"
     id="layer1"
     clip-path="url(#clipPath5)"
     transform="matrix(1.1710378,0.24911731,-0.63696008,0.8950218,15.779232,-4.8815153)"
     inkscape:path-effect="#path-effect6">
    <path
       style="display:inline;fill:#759092;fill-opacity:1;stroke-width:0.264583"
       id="path1"
       sodipodi:type="arc"
       sodipodi:cx="33.866669"
       sodipodi:cy="33.866669"
       sodipodi:rx="14.408152"
       sodipodi:ry="14.408152"
       d="M 48.27482,33.866669 A 14.408152,14.408152 0 0 1 33.866669,48.27482 14.408152,14.408152 0 0 1 19.458517,33.866669 14.408152,14.408152 0 0 1 33.866669,19.458517 14.408152,14.408152 0 0 1 48.27482,33.866669 Z" />
    <path
       style="display:none;fill:#d1d1d1;fill-opacity:0.346076;stroke-width:0.264583"
       id="circle2"
       sodipodi:type="arc"
       sodipodi:cx="33.866669"
       sodipodi:cy="33.866669"
       sodipodi:rx="4.394486"
       sodipodi:ry="4.394486"
       d="m 38.261155,33.866669 a 4.394486,4.394486 0 0 1 -4.394486,4.394486 4.394486,4.394486 0 0 1 -4.394486,-4.394486 4.394486,4.394486 0 0 1 4.394486,-4.394486 4.394486,4.394486 0 0 1 4.394486,4.394486 z" />
  </g>
</svg>
