<?xml version="1.0" encoding="UTF-8" standalone="no"?>
<!-- Created with Inkscape (http://www.inkscape.org/) -->

<svg
   width="256"
   height="256"
   viewBox="0 0 67.733335 67.733333"
   version="1.1"
   id="svg1"
   inkscape:version="1.4.2 (f4327f4, 2025-05-13)"
   sodipodi:docname="disk icon.svg"
   xmlns:inkscape="http://www.inkscape.org/namespaces/inkscape"
   xmlns:sodipodi="http://sodipodi.sourceforge.net/DTD/sodipodi-0.dtd"
   xmlns="http://www.w3.org/2000/svg"
   xmlns:svg="http://www.w3.org/2000/svg">
  <sodipodi:namedview
     id="namedview1"
     pagecolor="#ffffff"
     bordercolor="#000000"
     borderopacity="0.25"
     inkscape:showpageshadow="2"
     inkscape:pageopacity="0.0"
     inkscape:pagecheckerboard="0"
     inkscape:deskcolor="#d1d1d1"
     inkscape:document-units="px"
     inkscape:zoom="2.7545174"
     inkscape:cx="200.5796"
     inkscape:cy="167.906"
     inkscape:window-width="1920"
     inkscape:window-height="991"
     inkscape:window-x="-9"
     inkscape:window-y="-9"
     inkscape:window-maximized="1"
     inkscape:current-layer="layer1" />
  <defs
     id="defs1">
    <inkscape:path-effect
       effect="powerclip"
       message=""
       id="path-effect5"
       is_visible="true"
       lpeversion="1"
       inverse="true"
       flatten="false"
       hide_clip="false" />
    <clipPath
       clipPathUnits="userSpaceOnUse"
       id="clipPath5">
      <circle
         style="display:none;fill:#c5c5c5;stroke-width:0.264583"
         id="circle5"
         cx="33.866669"
         cy="33.866669"
         r="2.9056437" />
      <path
         id="lpe_path-effect5"
         style="fill:#c5c5c5;stroke-width:0.264583"
         class="powerclip"
         d="M 14.458517,14.458517 H 53.27482 V 53.27482 H 14.458517 Z m 22.313795,19.408152 a 2.9056437,2.9056437 0 0 0 -2.905643,-2.905644 2.9056437,2.9056437 0 0 0 -2.905644,2.905644 2.9056437,2.9056437 0 0 0 2.905644,2.905643 2.9056437,2.9056437 0 0 0 2.905643,-2.905643 z" />
    </clipPath>
  </defs>
  <g
     inkscape:label="Layer 1"
     inkscape:groupmode="layer"
     id="layer1"
     clip-path="url(#clipPath5)"
     inkscape:path-effect="#path-effect5"
     transform="matrix(2.0533707,0.43681782,-1.1168855,1.569387,2.1510324,-34.076809)">
    <path
       style="fill:#e4e4e4;fill-opacity:1;stroke-width:0.264583"
       id="path1"
       sodipodi:type="arc"
       sodipodi:cx="33.866669"
       sodipodi:cy="33.866669"
       sodipodi:rx="14.408152"
       sodipodi:ry="14.408152"
       d="M 48.27482,33.866669 A 14.408152,14.408152 0 0 1 33.866669,48.27482 14.408152,14.408152 0 0 1 19.458517,33.866669 14.408152,14.408152 0 0 1 33.866669,19.458517 14.408152,14.408152 0 0 1 48.27482,33.866669 Z" />
    <path
       style="fill:#d1d1d1;fill-opacity:1;stroke-width:0.264583"
       id="circle2"
       sodipodi:type="arc"
       sodipodi:cx="33.866669"
       sodipodi:cy="33.866669"
       sodipodi:rx="4.394486"
       sodipodi:ry="4.394486"
       d="m 38.261155,33.866669 a 4.394486,4.394486 0 0 1 -4.394486,4.394486 4.394486,4.394486 0 0 1 -4.394486,-4.394486 4.394486,4.394486 0 0 1 4.394486,-4.394486 4.394486,4.394486 0 0 1 4.394486,4.394486 z" />
  </g>
</svg>
