<?xml version="1.0" encoding="UTF-8" standalone="no"?>
<svg
   width="16"
   height="16"
   viewBox="0 0 16 16"
   fill="none"
   version="1.1"
   id="svg1"
   sodipodi:docname="home.svg"
   inkscape:version="1.4.2 (f4327f4, 2025-05-13)"
   xmlns:inkscape="http://www.inkscape.org/namespaces/inkscape"
   xmlns:sodipodi="http://sodipodi.sourceforge.net/DTD/sodipodi-0.dtd"
   xmlns="http://www.w3.org/2000/svg"
   xmlns:svg="http://www.w3.org/2000/svg">
  <defs
     id="defs1" />
  <sodipodi:namedview
     id="namedview1"
     pagecolor="#ffffff"
     bordercolor="#000000"
     borderopacity="0.25"
     inkscape:showpageshadow="2"
     inkscape:pageopacity="0.0"
     inkscape:pagecheckerboard="0"
     inkscape:deskcolor="#d1d1d1"
     inkscape:zoom="90.509668"
     inkscape:cx="6.5186406"
     inkscape:cy="9.1758153"
     inkscape:window-width="1920"
     inkscape:window-height="991"
     inkscape:window-x="-9"
     inkscape:window-y="-9"
     inkscape:window-maximized="1"
     inkscape:current-layer="svg1" />
  <path
     fill-rule="evenodd"
     clip-rule="evenodd"
     d="M8.36002 1.37L14.72 7.16999L14.01 7.87999L13 6.96411V13.49L12.5 13.99H9.50004L9.00004 13.49V9.99002H7.00004V13.49L6.50004 13.99H3.50004L3.00004 13.49L3.00003 6.97166L2.00004 7.87999L1.29004 7.16999L7.64002 1.37H7.65002H8.35002H8.36002ZM4.00004 6.06332V12.99H6.00004V9.49002L6.50004 8.99001H9.50004L10 9.49002V12.99H12V6.05729L8.00002 2.43L4.00004 6.06332Z"
     fill="#C5C5C5"
     id="path1" />
  <path
     style="fill:#c5c5c5;fill-opacity:1;stroke-width:0.0206986"
     d="M 4.0051746,9.5259254 V 6.073843 L 5.9745173,4.2840108 C 7.0576557,3.299603 7.9600594,2.4862554 7.9798586,2.4765716 8.0089169,2.4623594 8.3994324,2.8068683 10.005341,4.2634323 l 1.989484,1.8044675 V 9.5229537 12.978008 H 11.001294 10.007762 V 11.233842 9.4896764 L 9.7539055,9.2364293 9.5000491,8.9831824 H 7.9993904 6.498732 L 6.2454849,9.2370389 5.992238,9.4908953 v 1.7435567 1.743556 H 4.9987063 4.0051746 Z"
     id="path2" />
  <path
     style="fill:#c5c5c5;fill-opacity:1"
     id="path17"
     d="m 5.9265735,7.6527802 c 0.018157,-0.053599 0.058799,-0.096043 0.096797,-0.1366819 0.045157,-0.052787 0.1056676,-0.091898 0.165015,-0.1274275 0.052145,-0.023933 0.1028607,-0.050548 0.1539294,-0.076572 0.059827,-0.030708 0.1062665,-0.080261 0.1530127,-0.1275304 0.010515,-0.012977 0.022894,-0.024644 0.031544,-0.038932 0.079666,-0.1315918 -0.00149,-0.0284 0.085375,-0.1511213 0.040926,-0.057822 0.091304,-0.1063238 0.142504,-0.1546995 C 6.8309642,6.7644894 6.9149785,6.7008876 6.9862252,6.620605 7.0560311,6.5287477 7.1147525,6.4292116 7.1765996,6.331992 7.2301943,6.2433348 7.2895687,6.1586226 7.347626,6.0729334 7.4020631,6.0011782 7.4441666,5.9218243 7.4960676,5.8482373 7.5382686,5.7681217 7.5971188,5.7043582 7.6676129,5.6489246 c 0.04558,-0.046551 0.107016,-0.1072067 0.1644903,-0.1377264 0.02605,-0.013833 0.076121,-0.024896 0.1043231,-0.032123 0.094835,-0.017114 0.188867,-1.611e-4 0.2827707,0.014048 0.049486,0.0093 0.096849,0.029622 0.1460241,0.039767 0.071608,0.014772 -0.00177,-0.00943 0.068416,0.016588 0.077934,0.013771 0.1475977,0.046898 0.2155567,0.085785 0.052037,0.031264 0.092705,0.076925 0.1402061,0.1139984 0.068996,0.053848 4.925e-4,-0.00598 0.069016,0.05619 0.062626,0.061603 0.1207208,0.1274018 0.1817092,0.1905857 0.060252,0.055775 0.1187351,0.1131191 0.1772325,0.1707667 0.056702,0.061506 0.1117559,0.127892 0.1844512,0.1707799 0.088196,0.054953 0.1573244,0.1334098 0.2256118,0.2104734 0.070982,0.076092 0.1330777,0.1596452 0.2001193,0.2389751 0.057771,0.069113 0.1296977,0.1240857 0.1929071,0.188149 0.05707,0.045851 0.09685,0.1219673 0.170016,0.145444 0.01419,0.00455 0.02934,0.00526 0.04401,0.00789 0.108298,0.053111 0.194526,0.1390272 0.29319,0.2068867 0.04087,0.012921 0.08385,0.00132 0.125117,0.00792 0.04432,0.00709 0.119733,0.036042 0.156828,0.058334 0.05616,0.033747 0.112346,0.088629 0.160434,0.1318856 0.140469,0.1326755 0.27659,0.269805 0.405519,0.4137421 0.104513,0.116895 0.189226,0.2492466 0.284312,0.3734776 0.06735,0.086413 0.138644,0.1700759 0.212921,0.2505978 0.01066,0.012777 0.02055,0.026237 0.03198,0.03833 0.03096,0.032762 0.06614,0.061889 0.09712,0.09483 0.04125,0.04636 0.02056,0.023811 0.06201,0.067698 0.06167,0.061042 0.112999,0.1309817 0.164458,0.2004862 0.04016,0.049193 0.07556,0.1018783 0.10697,0.1570137 0,0 0,-3.5254075 0,-3.5254075 v 0 c -0.03477,-0.04649 -0.06874,-0.093462 -0.10697,-0.1372113 -0.05314,-0.054821 -0.112399,-0.1029263 -0.164458,-0.1588247 -0.01022,-0.00956 -0.02043,-0.019128 -0.03065,-0.028693 -0.01045,-0.00864 -0.02129,-0.016832 -0.03136,-0.025921 -0.03355,-0.030295 -0.06373,-0.06459 -0.09712,-0.094919 -0.01004,-0.00912 -0.02132,-0.016762 -0.03198,-0.025143 C 11.803062,5.0732144 11.731952,5.0141323 11.65987,4.9565979 11.565884,4.8911556 11.467793,4.8317568 11.375558,4.7637702 11.244017,4.6662941 11.110506,4.5717104 10.970039,4.4874265 10.909781,4.4484583 10.862877,4.4216758 10.809605,4.3719413 10.69615,4.2660183 10.617201,4.1327977 10.52766,4.0078985 10.42771,3.930036 10.317485,3.8634201 10.23447,3.766037 10.201849,3.7180744 10.189664,3.6964396 10.153147,3.6549562 10.113323,3.6097151 10.062077,3.5770534 10.020446,3.5336283 9.9529824,3.4702765 9.8926661,3.400226 9.8275393,3.3349756 9.7624624,3.273247 9.693442,3.2155355 9.62742,3.1548156 9.5444208,3.0803318 9.4662987,3.0006003 9.4018082,2.9091738 9.3492755,2.8334612 9.2865911,2.7656747 9.217357,2.704839 9.155331,2.6419352 9.0992651,2.5744905 9.0401245,2.5090017 8.9831785,2.4532048 8.9216044,2.4024032 8.8584153,2.3540149 8.775912,2.2892266 8.8738859,2.3682093 8.7893996,2.2929865 8.7449923,2.2534482 8.6927465,2.223331 8.6491935,2.1826856 8.5814422,2.1262016 8.5114002,2.0709973 8.4336368,2.0289271 c -0.023012,-0.00744 -0.044748,-0.01918 -0.068416,-0.024152 -0.046092,-0.00968 -0.1015183,0.00404 -0.1460241,0.014529 -0.095892,0.019361 -0.1889508,0.048775 -0.2827707,0.076015 -0.00398,9.889e-4 -0.099786,0.024935 -0.1043231,0.02562 -0.016429,0.00248 -0.033343,2.703e-4 -0.049769,0.00278 -0.042178,0.00643 -0.080375,0.025599 -0.1147213,0.050056 -0.056833,0.078838 -0.1082582,0.1615661 -0.171545,0.2355746 -0.05496,0.083577 -0.1094441,0.1674156 -0.1484416,0.259935 -0.054142,0.1019049 -0.1092883,0.203331 -0.1710264,0.3008989 -0.058388,0.090587 -0.1220354,0.1777043 -0.1903744,0.2610689 -0.074926,0.1047444 -0.1432598,0.2147849 -0.2314746,0.3092767 -0.04116,0.043637 -0.084417,0.094618 -0.1425045,0.1167686 -0.063187,0.024096 -0.062484,-0.020672 -0.1169188,0.00265 -0.052419,0.023119 -0.1067001,0.042933 -0.1530127,0.077523 -0.052604,0.037543 -0.1022436,0.078513 -0.1539294,0.1171825 -0.028438,0.015383 -0.057621,0.028765 -0.086369,0.043499 -0.014055,0.0072 -0.037876,0.021843 -0.053477,0.026417 -0.00812,0.00238 -0.01678,0.00224 -0.025169,0.00336 -0.030488,0.00654 -0.075532,0.018055 -0.096797,-0.010947 z" />
  <path
     style="fill:#c5c5c5;fill-opacity:1"
     id="path18"
     d="m 12.45547,7.4253714 c -0.02604,0.073366 -0.07174,0.1320997 -0.136756,0.1742013 -0.0578,0.047496 -0.127888,0.072897 -0.199578,0.090637 -0.01054,0.00187 -0.0218,0.00134 -0.03163,0.0056 -0.01254,0.00543 -0.02211,0.016171 -0.03405,0.022826 -0.04378,0.024418 -0.09488,0.039807 -0.142546,0.054431 -0.06586,0.013387 -0.13117,0.022801 -0.192557,0.051354 -0.06276,0.027432 -0.119992,0.064938 -0.177996,0.100787 -0.0336,0.030074 -0.07205,0.057292 -0.101138,0.092167 -0.0011,0.00136 -0.03873,0.053771 -0.04077,0.056609 -0.04307,0.066397 -0.06509,0.1418234 -0.08229,0.2181572 -0.0049,0.030011 -0.0091,0.053482 -0.0125,0.083428 -0.0045,0.040027 -0.0054,0.080251 -0.0054,0.1204887 4e-5,1.1757566 3.1e-4,2.3515134 4.65e-4,3.5272704 0.0048,0.08056 0.01372,0.16056 0.03095,0.23941 0.0166,0.0826 0.04283,0.162294 0.07415,0.240335 0.03143,0.06921 0.08008,0.127647 0.125964,0.187475 0.04643,0.06234 0.09696,0.120278 0.153601,0.173352 0.05446,0.04577 0.109575,0.09113 0.164602,0.136624 0.05161,0.04059 0.106219,0.07687 0.159672,0.114795 0.05644,0.02917 0.103184,0.07178 0.151479,0.112222 0.0483,0.03913 0.09549,0.0785 0.136491,0.125343 0.05436,0.05556 0.07929,0.09908 0.08687,0.176904 -4.83e-4,-1.222145 -9.65e-4,-2.44429 -0.0014,-3.666436 -0.01364,0.0117 -0.02364,0.022031 -0.0425,0.02208 -0.03557,0.00299 -0.06324,0.02608 -0.09595,0.038132 -0.05505,0.024148 -0.116049,0.022926 -0.1749,0.018969 -0.06478,0.00518 -0.129071,-3.311e-4 -0.193802,-0.0021 -0.03276,-0.00591 -0.06728,-0.00655 -0.09979,-0.013643 -0.01093,-0.00238 -0.02115,-0.00734 -0.03194,-0.010271 -0.03228,-0.00876 -0.03153,-0.00701 -0.06498,-0.00912 -0.01113,-0.00232 -0.02215,-0.00525 -0.03339,-0.00696 -0.01154,-0.00175 -0.02334,-0.0015 -0.03486,-0.00339 -0.04846,-0.00795 -0.09394,-0.02634 -0.142189,-0.034817 -0.03918,-0.00297 -0.07381,-0.022145 -0.110642,-0.033257 -0.03693,-0.011142 -0.07625,-0.017499 -0.113762,-0.026603 -0.02683,-0.00701 -0.05489,-0.00743 -0.08187,-0.013535 -0.01422,-0.00322 -0.02765,-0.0095 -0.04193,-0.012414 -0.01443,-0.00294 -0.0294,-0.00245 -0.04389,-0.00509 -0.04076,-0.00741 -0.04789,-0.012449 -0.08617,-0.027666 C 10.911248,9.714787 10.834109,9.690858 10.752611,9.677704 10.676951,9.66701 10.603027,9.647968 10.526996,9.639393 10.454946,9.627115 10.382042,9.629413 10.309693,9.619251 10.244983,9.608841 10.180274,9.598466 10.115341,9.589516 10.059581,9.581906 10.003587,9.57622 9.9475384,9.571233 9.8983804,9.567403 9.8480694,9.561273 9.8012952,9.545054 c -0.030228,-0.00443 -0.015141,-0.00165 -0.045254,-0.00837 0,0 0,3.61017 0,3.61017 v 0 c 0.030299,0.0092 0.015214,0.0043 0.045254,0.01461 0.049038,0.0011 0.097244,-2.5e-5 0.1462432,-0.0036 0.055956,-0.0022 0.1119006,-0.0046 0.1678026,-0.0079 0.06478,-0.0038 0.129519,-0.0084 0.194352,-0.01127 0.07305,-0.0016 0.144425,0.01017 0.217303,0.01274 0.07518,0.0071 0.151274,0.006 0.225615,0.02016 0.07839,0.01452 0.156966,0.02419 0.235927,0.03466 0.03529,0.0035 0.05166,0.0033 0.08617,0.0141 0.01503,0.0047 0.02898,0.0124 0.04389,0.01748 0.04225,0.0144 0.08476,0.02646 0.123799,0.04942 0.0376,0.01463 0.07533,0.03126 0.113762,0.04359 0.04218,0.01353 0.03103,0.0053 0.0734,0.01994 0.01267,0.0044 0.02482,0.01012 0.03724,0.01518 0.06845,0.02836 0.141516,0.04604 0.210434,0.07371 0.0626,0.02482 0.130064,0.02827 0.196708,0.0343 0.06421,0.01177 0.12894,0.02121 0.193802,0.02823 0.06009,3.08e-4 0.121819,0.0046 0.1749,0.03553 0.03209,0.01677 0.05855,0.04913 0.09595,0.05126 0.0072,-0.0026 0.02522,-0.0054 0.0309,-0.0099 0.0071,-0.0055 0.0096,-0.02003 0.0116,-0.02719 4.83e-4,-1.230651 9.65e-4,-2.461301 0.0014,-3.6919519 -0.01629,0.016004 -0.07575,-0.050747 -0.08687,-0.061012 -0.04548,-0.042953 -0.08608,-0.091176 -0.136491,-0.1287504 -0.04905,-0.038588 -0.102179,-0.071282 -0.151479,-0.109598 -0.0532,-0.032121 -0.106531,-0.063892 -0.159672,-0.096089 C 11.786611,9.43144 11.733369,9.388871 11.6834,9.340362 11.6309,9.294767 11.576316,9.250931 11.529799,9.1990781 c -0.05184,-0.061454 -0.09341,-0.1310907 -0.125964,-0.2045985 -0.03133,-0.066208 -0.05846,-0.1342436 -0.07415,-0.2060584 -0.01718,-0.083845 -0.02768,-0.1685747 -0.03095,-0.2541779 -1.55e-4,1.1491685 -4.24e-4,2.2983367 -4.65e-4,3.4475057 0,0.01279 -4.2e-5,-0.02558 3.42e-4,-0.03836 0.0016,-0.05164 0.0054,-0.103667 0.01756,-0.154008 0.01612,-0.06616 0.0445,-0.128142 0.08229,-0.184909 0.03807,-0.05712 0.08474,-0.107827 0.141903,-0.146402 0.05378,-0.04113 0.115322,-0.06771 0.177996,-0.09249 0.06647,-0.02483 0.126901,-0.06223 0.192557,-0.08876 0.04568,-0.0158 0.09499,-0.03419 0.142546,-0.04324 0.01119,-0.0021 0.02317,5.63e-4 0.03405,-0.0028 0.01151,-0.0035 0.02109,-0.01162 0.03163,-0.01743 0.06533,-0.02945 0.130855,-0.05956 0.199578,-0.08013 0.04723,-0.02134 0.100766,-0.03611 0.136756,0.01205 z" />
  <path
     style="fill:#c5c5c5;fill-opacity:1"
     id="path19"
     d="m 11.018249,6.7360425 c -0.0096,0.016671 -0.02008,0.042841 -0.04197,0.049018 -0.03828,0.010801 -0.103774,-0.052327 -0.128422,-0.074113 -0.05958,-0.05767 -0.116163,-0.1179035 -0.178832,-0.172312 -0.0092,-0.00819 -0.01756,-0.017375 -0.02755,-0.024557 -0.0089,-0.00642 -0.01955,-0.010164 -0.02888,-0.01601 -0.04033,-0.025282 -0.0796,-0.052875 -0.119312,-0.079184 -0.05421,-0.03821 -0.109785,-0.068527 -0.176173,-0.076076 -0.0686,-0.0043 -0.134441,-0.023364 -0.200542,-0.040737 -0.02131,-0.00305 -0.04097,-0.01337 -0.06214,-0.016942 -0.01045,-0.00176 -0.02122,-6.504e-4 -0.03174,-0.00198 C 9.989531,6.2789695 9.959701,6.2687585 9.929189,6.2557735 9.8672533,6.2406547 9.8103319,6.2120466 9.7507035,6.1905445 9.6890198,6.1576451 9.6214527,6.1425859 9.5598098,6.1098163 9.4929323,6.0822319 9.4333245,6.0400621 9.3658497,6.0141756 9.3072185,5.9834072 9.2450746,5.9640938 9.1825601,5.9436149 9.1425902,5.9296433 9.1031042,5.912614 9.0597752,5.9153871 c -0.011807,7.556e-4 -0.023403,0.00349 -0.035105,0.00524 -0.012351,5.116e-4 -0.024702,0.00102 -0.037054,0.00153 -0.081967,0.00585 -0.1651903,0.00334 -0.2466757,-0.00733 -0.069428,-0.00335 -0.140111,-0.019128 -0.2092719,-0.00346 -0.016992,0.00385 -0.032916,0.011438 -0.049373,0.017157 -0.059132,0.017954 -0.1150386,0.037072 -0.1777881,0.033456 -0.0608,-0.0035 -0.1215488,-0.022635 -0.1809964,-0.034683 -0.019978,2.432e-4 -0.040348,-0.00322 -0.059934,7.296e-4 -0.016812,0.00339 -0.1309974,0.051049 -0.1426355,0.055217 -0.052717,0.018878 -0.1112861,0.03652 -0.1671713,0.043004 -0.027983,0.00325 -0.056313,0.0018 -0.084469,0.0027 -0.079259,0.00548 -0.1573404,-0.011617 -0.2359695,-0.016256 -0.024073,-0.00142 -0.04824,1.372e-4 -0.072343,-6.47e-4 C 7.244408,6.0082547 7.3393748,6.0053547 7.2245962,6.011973 7.1412922,6.019453 7.0567936,6.018153 6.974315,6.033028 6.954292,6.036638 6.933616,6.038438 6.914603,6.04568 6.891828,6.05436 6.871673,6.068763 6.850208,6.080305 6.72286,6.142934 6.5982289,6.158211 6.4598814,6.171749 6.4407304,6.174299 6.4213754,6.175609 6.4024294,6.179389 6.3949794,6.180879 6.297703,6.207789 6.2898568,6.209592 6.2378158,6.221548 6.1855704,6.226701 6.1337002,6.239731 6.0376712,6.264187 5.9466018,6.298632 5.8594521,6.3454591 5.7815341,6.3964431 5.7047046,6.4490038 5.6304379,6.5052451 5.5663349,6.5499061 5.5095349,6.6019691 5.45551,6.6580099 c -0.024817,0.026978 -0.049416,0.052721 -0.071632,0.081887 0,0 0,3.5066591 0,3.5066591 v 0 c 0.02391,-0.03164 0.046465,-0.06426 0.071632,-0.09493 0.056902,-0.06709 0.1124353,-0.135634 0.1749279,-0.1976418 0.068023,-0.070567 0.1406512,-0.1406281 0.2290142,-0.18489 0.089365,-0.049705 0.1790576,-0.1001007 0.2742481,-0.137824 0.052668,-0.022068 0.1031759,-0.048938 0.1561566,-0.07018 0.1088225,-0.043631 0.0026,0.00321 0.1125726,-0.038809 0.019489,-0.00745 0.038301,-0.016557 0.057452,-0.024836 0.1244355,-0.059165 0.249848,-0.1176573 0.3903266,-0.1227546 0.021465,0.00108 0.042978,0.00505 0.064395,0.00325 0.020346,-0.00171 0.039893,-0.00875 0.059712,-0.013651 0.084224,-0.020849 0.1647461,-0.054255 0.2502812,-0.070595 0.1486898,-0.033591 0.2937533,-0.082871 0.444705,-0.1058926 0.028156,-0.00279 0.056175,-0.00851 0.084469,-0.00838 0.05584,2.684e-4 0.1144585,0.013642 0.1671713,0.030903 0.048785,0.015974 0.093274,0.043973 0.1426355,0.058068 0.019381,0.00553 0.039956,0.00535 0.059934,0.00802 0.081203,-0.00141 0.1655256,-0.00869 0.2437039,0.018942 0.020959,0.00741 0.040174,0.01905 0.060459,0.028143 0.01808,0.0081 0.036414,0.015628 0.054621,0.023442 0.016458,0.00771 0.032215,0.017146 0.049373,0.023143 0.067423,0.023566 0.1395449,0.01465 0.2092719,0.020777 0.083248,9.777e-4 0.1675278,0.01203 0.2466757,0.038505 0.035801,0.011672 0.068259,0.02958 0.104116,0.040739 0.026255,0.00817 0.033583,0.00761 0.060306,0.012678 0.01021,0.00194 0.020347,0.00424 0.030521,0.00636 0.062039,0.016743 0.1213497,0.042625 0.1832896,0.060057 0.063766,0.02588 0.1329503,0.037461 0.1939601,0.070961 0.067502,0.029951 0.1239354,0.077384 0.1908937,0.1085428 0.055604,0.03434 0.1175984,0.057326 0.1784784,0.080433 0.063943,0.00761 0.1227917,0.033212 0.1873847,0.034902 0.06877,0.0042 0.137431,0.00962 0.200542,0.040157 0.05702,0.027269 0.116594,0.046489 0.176173,0.067249 0.04218,0.018031 0.08301,0.038666 0.119312,0.067178 0.01013,0.008 0.01854,0.018 0.02888,0.02569 0.0086,0.0064 0.01837,0.01088 0.02755,0.01631 0.0596,0.03972 0.124339,0.07175 0.178832,0.118815 0.0135,0.01089 0.05441,0.04327 0.06609,0.0553 0.05604,0.05771 0.08653,0.130455 0.104302,0.20799 z" />
  <path
     style="fill:#c5c5c5;fill-opacity:1"
     id="path20"
     d="m 5.2866688,12.168313 c 0.020163,-0.02075 0.052829,-0.0047 0.076492,0.0027 0.048291,0.0031 0.085294,0.03392 0.1270475,0.05371 0.04959,0.02091 0.095268,0.05021 0.1425237,0.07627 0.031024,0.02555 0.071461,0.02348 0.1078031,0.03534 0.021209,0.0069 0.041484,0.01643 0.062318,0.02441 0.062261,0.03382 0.1269778,0.06293 0.1893608,0.09655 0.060158,0.03775 0.1234861,0.06918 0.1825725,0.108713 0.00964,0.0065 0.019289,0.01309 0.028934,0.01964 0,0 0,-3.5394118 0,-3.5394118 v 0 c -0.00964,-0.00412 -0.019289,-0.00824 -0.028934,-0.01236 C 6.1129036,9.0041393 6.055781,8.9655961 5.992214,8.9392868 5.929341,8.9050663 5.867112,8.8698624 5.8028532,8.8383624 c -0.031308,-0.01953 -0.063202,-0.037403 -0.092407,-0.060086 -0.014383,-0.011171 -0.038019,-0.032553 -0.053794,-0.042852 -0.00756,-0.00494 -0.015947,-0.00849 -0.02392,-0.012733 -0.04777,-0.029508 -0.098786,-0.054326 -0.1425237,-0.08956 C 5.4466235,8.6011664 5.3949685,8.5799464 5.363161,8.5334394 5.333369,8.5039354 5.303709,8.4722084 5.286669,8.4334584 Z" />
  <path
     style="fill:#c5c5c5;fill-opacity:1"
     id="path21"
     d="M 6.578556,9.953805 C 6.560004,9.989695 6.521707,9.993968 6.485132,9.996587 6.446313,9.997647 6.407476,9.9960575 6.3686692,9.995087 6.3274182,9.992277 6.2851822,9.988867 6.2458862,9.975514 6.2070122,9.963526 6.1668322,9.956826 6.1266639,9.950965 6.0792019,9.960195 6.0313129,9.9504056 5.9832737,9.9517254 5.9215247,9.9605454 5.85881,9.9533654 5.7978732,9.9410954 5.7299748,9.9316136 5.6623434,9.923791 5.593788,9.921259 5.516583,9.921768 5.439678,9.927798 5.3625438,9.9204055 5.2855671,9.9156532 5.2090175,9.9067422 5.1319174,9.9033314 c -0.083617,-0.00568 -0.166339,0.00687 -0.2495301,-0.00415 -0.083659,-0.00943 -0.166498,-0.024212 -0.2489255,-0.041316 -0.074413,-0.019843 -0.1508631,-0.012308 -0.2265474,-0.00894 -0.079077,0.0066 -0.157077,-0.00574 -0.2349731,-0.017484 -0.0678,-0.00749 -0.1358155,-0.013514 -0.2036785,-0.021579 -0.057407,-0.0078 -0.115464,-0.019685 -0.1695049,-0.040974 C 3.7561791,9.74886 3.7184346,9.7200677 3.6820771,9.690532 3.642145,9.6750494 3.6162437,9.638703 3.5926169,9.6046929 3.5697224,9.5707408 3.5507871,9.5342586 3.5404516,9.4945539 3.4021973,8.156509 3.4211725,14.267444 3.5380778,12.940183 c 0.00701,-0.06031 0.022689,-0.119221 0.037587,-0.177969 0.017821,-0.06504 0.035958,-0.130268 0.06265,-0.192322 0.038307,-0.109578 0.068044,-0.221782 0.1064676,-0.331295 0.058416,-0.131781 0.1243669,-0.259343 0.195174,-0.384825 0.070411,-0.126162 0.1506544,-0.246324 0.2245297,-0.370425 0.012087,-0.0205 0.025307,-0.04038 0.03626,-0.0615 0.01355,-0.02614 0.024128,-0.05372 0.037163,-0.08012 0.046672,-0.09452 0.097854,-0.18723 0.1461444,-0.28097 0.076119,-0.137763 0.1473772,-0.278077 0.2070593,-0.423774 0.067728,-0.163329 0.1225376,-0.331836 0.1747983,-0.50067 0.022124,-0.0781 0.05388,-0.1544307 0.068728,-0.2345467 0.00863,-0.046541 0.00782,-0.067603 0.00992,-0.1153021 C 1.8092957,9.333304 5.0941752,7.4659328 4.8288533,6.3524103 4.8087659,6.2681059 4.7745014,6.1858072 4.7379567,6.1076062 4.6907522,5.9923559 4.6177989,5.8926911 4.5464497,5.7918279 4.490628,5.7046973 4.4188125,5.6300523 4.3513681,5.5522793 4.2977947,5.4816881 4.2359526,5.4187576 4.177287,5.3525981 4.1289646,5.2951075 4.0666432,5.2523042 4.0109798,5.2026562 3.9756055,5.1691156 3.9399285,5.1346375 3.8909273,5.1243703 c -0.031014,-0.00267 -0.051082,0.01541 -0.068593,0.038551 -0.01888,0.028238 -0.029285,0.060691 -0.038551,0.093054 -0.011062,0.040544 -0.016174,0.082404 -0.021649,0.1239876 -0.00545,0.042421 -0.00903,0.085046 -0.012157,0.1276904 -0.00256,0.035948 -0.00433,0.071944 -0.00594,0.1079452 0,0 0,3.6247914 0,3.6247914 v 0 c 0.00161,-0.035119 0.00336,-0.070234 0.00594,-0.1052971 0.00307,-0.04047 0.00652,-0.080934 0.012157,-0.1211424 0.00487,-0.032769 0.010919,-0.065282 0.021649,-0.096726 0.00934,-0.026501 0.020292,-0.052587 0.038551,-0.07435 0.019428,-0.021786 0.042064,-0.039767 0.068593,-0.052339 0.037596,-0.017306 0.078113,-0.031389 0.1200525,-0.026601 0.061955,0.013744 0.1143967,0.051316 0.1663072,0.086319 0.061824,0.046096 0.1133206,0.1037839 0.1740811,0.1514139 0.06735,0.057409 0.1280373,0.1226023 0.1950816,0.1805716 0.071266,0.075442 0.1357703,0.1573709 0.191507,0.2449107 0.026969,0.054431 0.054593,0.1084327 0.072908,0.1665981 0.017985,0.057116 0.018912,0.072124 0.029321,0.1296295 0.00146,-1.0803368 0.00291,-2.1606737 0.00437,-3.2410105 -0.00639,0.1706047 -0.03677,0.3387899 -0.078645,0.504172 -0.013155,0.044791 -0.036613,0.1264945 -0.051688,0.1703799 -0.03365,0.097962 -0.08114,0.1905398 -0.1231105,0.2850281 -0.069934,0.1365119 -0.1366807,0.2746391 -0.2070593,0.41092 -0.047431,0.086556 -0.092533,0.1788625 -0.1461444,0.26156 -0.011446,0.017656 -0.02567,0.033401 -0.037163,0.051027 -0.013011,0.019953 -0.024174,0.041052 -0.03626,0.061577 -0.073638,0.1201665 -0.1460178,0.2411211 -0.2245297,0.3582243 -0.064782,0.1000989 -0.1317565,0.1984839 -0.195174,0.2993739 -0.048405,0.05119 -0.085255,0.067579 -0.1064676,0.1416915 -0.020763,0.057842 -0.042988,0.1151849 -0.06265,0.1733636 -0.015653,0.050211 -0.03114,0.1005972 -0.037587,0.1530107 -0.1189969,1.2447063 -0.1097026,2.5074173 0.00237,3.7523523 0.00918,0.04573 0.025567,0.09053 0.052165,0.129164 0.026719,0.03457 0.059118,0.0631 0.08946,0.09433 0.036778,0.01989 0.073945,0.03414 0.1166808,0.03305 0.05676,0.0018 0.1128066,0.0013 0.1695049,-0.0039 0.067882,-0.006 0.1357919,-0.0096 0.2036785,-0.01389 0.078226,-0.008 0.1566315,-0.01621 0.2349731,-0.0038 0.075125,0.0093 0.1504553,0.02436 0.2265474,0.01544 0.082944,-0.0052 0.1661071,-0.0067 0.2489255,0.0014 0.085345,0.0069 0.1642365,0.04042 0.2495301,0.04897 0.076889,0.0067 0.1535813,0.0031 0.2306264,0.0056 0.078419,7.93e-4 0.154698,0.01581 0.2312442,0.03154 0.068174,0.01187 0.1367309,0.02105 0.2040848,0.03694 0.064567,0.01175 0.1257073,0.0343 0.1854005,0.06094 0.047279,0.01701 0.097618,0.0216 0.1433902,0.0424 0.03988,0.0074 0.079372,0.01661 0.1192223,0.02414 0.041568,0.0043 0.081491,0.01682 0.122783,0.02282 0.038962,0.0039 0.077886,0.0084 0.1164628,0.01525 0.036178,0.0062 0.07487,0.0079 0.093424,0.0446 z" />
  <path
     style="fill:#c5c5c5;fill-opacity:1"
     id="path22"
     d="m 4.094337,9.0645746 c 0.019681,-0.046171 0.0561,-0.08573 0.097117,-0.1141999 0.038024,-0.026991 0.078959,-0.049409 0.1184965,-0.074125 0.043226,-0.025481 0.079061,-0.061109 0.1171991,-0.093245 0.00746,-0.00767 0.015808,-0.014554 0.022371,-0.022998 0.0205,-0.026376 0.035182,-0.056882 0.054982,-0.083787 0.02701,-0.036702 0.060322,-0.068749 0.093285,-0.099927 0.059811,-0.064889 0.1228689,-0.1259408 0.1876217,-0.1858169 0.05068,-0.046321 0.1040572,-0.08935 0.1529279,-0.1376195 0.050711,-0.057039 0.1027341,-0.1126187 0.1520832,-0.1709742 0.0095,-0.012285 0.018344,-0.0251 0.028489,-0.036854 0.0094,-0.010887 0.020029,-0.020642 0.030043,-0.030963 0.010468,-0.012169 0.021103,-0.024196 0.031403,-0.036507 0.036783,-0.043964 0.072047,-0.088408 0.1106511,-0.1308356 0.082224,-0.079263 0.163152,-0.1597881 0.2542261,-0.2290684 0.1179622,-0.074797 0.2107437,-0.1808894 0.3117271,-0.2759459 0.024434,-0.026396 0.04712,-0.054525 0.073303,-0.079188 0.032544,-0.030653 0.1209798,-0.095655 0.157055,-0.1218303 C 6.1656366,7.0838647 6.2467502,7.0328505 6.3288958,6.9818287 6.4680307,6.8906801 6.6118483,6.8095106 6.7650051,6.744645 6.8766798,6.6933961 6.9822033,6.6300295 7.0923531,6.5759351 7.1774987,6.5314884 7.2642295,6.490401 7.3506565,6.4485579 7.4304577,6.4118473 7.5039826,6.363302 7.5758823,6.3132483 c 0.07573,-0.066979 0.1653311,-0.1137348 0.2537669,-0.1613176 0.014574,-0.00583 0.029148,-0.011665 0.043722,-0.017498 0,0 0,-3.4244615 0,-3.4244615 v 0 c -0.014574,0.00838 -0.029148,0.016765 -0.043722,0.025148 -0.029262,0.013886 -0.059251,0.026281 -0.088021,0.04116 -0.055068,0.028478 -0.1063639,0.064673 -0.1657455,0.084557 C 7.4973934,2.9064737 7.4193395,2.9525936 7.3506565,3.0126193 7.2611404,3.0835421 7.1770556,3.1605946 7.0923531,3.237178 6.9848149,3.3403078 6.8712641,3.4371878 6.7650051,3.5418232 6.6311525,3.6742027 6.486573,3.7943163 6.3288958,3.8976589 c -0.10533,0.07048 -0.2031261,0.1318702 -0.3213332,0.179549 -0.025393,0.010242 -0.050591,0.021759 -0.0773,0.027786 -0.02392,0.0054 -0.048869,0.00413 -0.073303,0.0062 -0.057228,0.012883 -0.1215792,0.021002 -0.1759547,0.044105 -0.051185,0.021748 -0.094405,0.059975 -0.1357724,0.095881 -0.081878,0.06907 -0.1717178,0.1278145 -0.2542261,0.1958643 -0.035982,0.024084 -0.074362,0.042366 -0.1106511,0.065676 -0.034587,0.022217 -0.029234,0.022763 -0.061446,0.048477 -0.00922,0.00736 -0.018993,0.013993 -0.028489,0.02099 -0.052179,0.046604 -0.1037649,0.093283 -0.1520833,0.144036 -0.052695,0.063973 -0.1010945,0.1312736 -0.1529279,0.1959496 -0.057587,0.066946 -0.115673,0.1328042 -0.1876217,0.1850256 -0.026784,0.023423 -0.058866,0.055988 -0.093285,0.068431 -0.025041,0.00905 -0.054905,-0.00283 -0.077353,0.015965 -0.041153,0.019761 -0.08231,0.039773 -0.1171991,0.069842 -0.037092,0.029072 -0.076647,0.056322 -0.1184965,0.078011 -0.029534,0.013945 -0.072801,0.023701 -0.097117,-0.00401 z" />
  <path
     style="fill:#c5c5c5;fill-opacity:1"
     id="path23"
     d="m 4.8356187,6.5431647 c -0.01356,0.039708 -0.024157,0.081053 -0.050191,0.1148789 -0.010593,0.013763 -0.034272,0.035875 -0.046413,0.04768 -0.046402,0.043246 -0.08502,0.072646 -0.1510728,0.072406 -0.010155,-3.68e-5 -0.020217,-0.00195 -0.030326,-0.00293 -0.00999,6.547e-4 -0.019974,0.00138 -0.029968,0.00196 -0.00982,5.704e-4 -0.01963,0.00151 -0.029464,0.00149 -0.027545,-5.69e-5 -0.055679,-0.00493 -0.083212,-6.368e-4 -0.0092,0.00143 -0.01801,0.00473 -0.027016,0.0071 -0.036119,-0.00102 -0.068205,0.016799 -0.1032613,0.020998 -0.016787,0.00201 -0.030989,0.00121 -0.047782,9.283e-4 -0.02211,0.00794 -0.045305,0.014735 -0.068502,0.018803 -0.0072,0.00126 -0.01467,7.539e-4 -0.021827,0.00227 -0.01468,0.0031 -0.028599,0.00909 -0.042929,0.013539 -0.036093,0.00277 -0.00542,-0.00225 -0.040962,0.012155 -0.00648,0.00263 -0.013633,0.00333 -0.020142,0.00589 -0.02248,0.00886 -0.041838,0.02198 -0.060744,0.036659 -0.018352,0.011633 -0.020287,0.01467 -0.040577,0.020896 -0.0062,0.0019 -0.013097,0.00144 -0.019013,0.0041 -0.017321,0.00777 -0.040473,0.029446 -0.054274,0.04235 -0.00567,0.00462 -0.012119,0.00842 -0.017015,0.013856 -0.00638,0.00708 -0.010517,0.015923 -0.016499,0.023337 -0.016311,0.020218 -0.036265,0.038287 -0.055483,0.055692 -0.017759,0.014445 -0.029112,0.033443 -0.038816,0.05368 -0.00244,0.0051 -0.00667,0.00958 -0.00761,0.015149 -0.00259,0.015417 -0.00188,0.031211 -0.00282,0.046817 8.097e-4,1.150794 -7.924e-4,2.3015922 0.00243,3.4523829 7e-6,0.0025 0.00471,-0.0023 0.00723,-0.0022 0.010215,3.65e-4 0.020345,0.007 0.026748,0.01433 0.012067,0.01384 0.028582,0.04585 0.036736,0.06051 0.023804,0.03686 0.036935,0.08008 0.060014,0.117238 0.018337,0.02952 0.045737,0.05082 0.07287,0.07147 0.046615,0.01471 0.083764,0.04456 0.1231106,0.07194 0.021939,0.01527 0.040264,0.02574 0.063127,0.03946 0.017638,0.0126 0.04105,0.03078 0.061283,0.03969 0.019754,0.0087 0.041565,0.01193 0.061641,0.01986 0.0061,0.0024 0.052026,0.02364 0.058483,0.02661 0.06205,0.02792 -0.00651,-0.0013 0.053712,0.01963 0.018951,0.0066 0.028446,0.01439 0.048435,0.01719 0.00753,0.0011 0.018986,0.0064 0.022823,-2.14e-4 0.015743,-0.02696 0.019507,-0.05931 0.02926,-0.08896 0.030463,-0.09357 0.035719,-0.117603 0.074163,-0.206072 0.029994,-0.06902 0.063443,-0.13886 0.1191188,-0.191231 0.011075,-0.01042 0.024113,-0.01853 0.03617,-0.02779 0.04333,-0.02549 0.021878,-0.01392 0.064204,-0.03497 0,0 0,-3.0268275 0,-3.0268275 v 0 c -0.041174,0.089477 -0.019786,0.044869 -0.064204,0.1338072 -0.02571,0.044655 -0.060591,0.1218846 -0.1150205,0.1402001 -0.057732,0.019427 -0.092323,-0.042609 -0.1144311,-0.081816 -0.00975,-0.019312 -0.013692,-0.042912 -0.02926,-0.057936 -0.00578,-0.00557 -0.015401,0.00462 -0.022823,0.00768 -0.00297,0.00122 -0.04618,0.022652 -0.048435,0.023451 -0.017562,0.00622 -0.037234,0.00548 -0.053712,0.01548 -0.015646,0.00379 -0.042313,0.011039 -0.058483,0.01171 -0.031405,0.0013 -0.030855,-0.00447 -0.061641,-0.00922 -0.020257,-0.00313 -0.041027,-0.00192 -0.061283,-0.00506 -0.038559,-0.010434 -0.093141,-0.02422 -0.1262161,-0.04629 -0.025594,-0.017078 -0.039138,-0.034254 -0.060021,-0.056592 -0.019896,-0.019602 -0.032077,-0.031072 -0.050809,-0.051574 -0.00755,-0.00826 -0.014108,-0.017427 -0.022061,-0.025296 -0.00615,-0.00608 -0.013766,-0.010525 -0.0201,-0.016417 -0.01943,-0.018074 -0.023451,-0.025434 -0.039915,-0.047106 -0.00636,-0.010708 -0.013566,-0.02096 -0.019087,-0.032126 -0.02472,-0.050001 -0.036001,-0.1060389 -0.044397,-0.1607607 -0.00311,-0.020281 -0.00717,-0.081648 -0.00723,-0.061129 -0.00328,1.1335162 -0.00162,2.2670412 -0.00243,3.4005619 0.00824,0.0072 0.00156,0.0029 0.010427,-0.01721 0.012323,-0.02799 0.026289,-0.05532 0.038816,-0.08325 0.014275,-0.02811 0.031043,-0.06378 0.055483,-0.08474 0.00482,-0.0041 0.011383,-0.0058 0.016499,-0.0095 0.00611,-0.0045 0.011343,-0.01009 0.017015,-0.01514 0.011937,-0.0078 0.023566,-0.01616 0.03566,-0.02376 0.00608,-0.0038 0.012893,-0.0065 0.018614,-0.01085 0.019441,-0.01475 0.034211,-0.03467 0.05959,-0.04049 0.021257,-0.0043 0.041094,-0.01097 0.060744,-0.02038 0.00691,-0.0033 0.013107,-0.0081 0.020142,-0.01111 0.00658,-0.0029 0.014112,-0.0033 0.020506,-0.0065 0.00742,-0.0038 0.013637,-0.0095 0.020456,-0.01429 0.014306,-0.0061 0.029078,-0.01115 0.042929,-0.0182 0.029565,-0.01505 0.057596,-0.03434 0.09033,-0.04238 0.014538,-0.0095 0.032342,-0.02173 0.047782,-0.02979 0.032825,-0.01713 0.070401,-0.02132 0.1032613,-0.03888 0.00901,-0.0018 0.018164,-0.003 0.027016,-0.0054 0.048359,-0.01337 0.091903,-0.04166 0.1426447,-0.0473 0.039006,-0.01483 0.082594,-0.02889 0.1242881,-0.01478 0.016779,0.0057 0.042167,0.02259 0.05711,0.03187 0.014093,0.01074 0.034569,0.02517 0.046413,0.03877 0.027186,0.03122 0.036695,0.07217 0.050191,0.110245 z" />
</svg>
