<?xml version="1.0" encoding="UTF-8" standalone="no"?>
<svg
   width="16"
   height="16"
   viewBox="0 0 16 16"
   fill="none"
   version="1.1"
   id="svg2"
   sodipodi:docname="play.svg"
   inkscape:version="1.4.2 (f4327f4, 2025-05-13)"
   xmlns:inkscape="http://www.inkscape.org/namespaces/inkscape"
   xmlns:sodipodi="http://sodipodi.sourceforge.net/DTD/sodipodi-0.dtd"
   xmlns="http://www.w3.org/2000/svg"
   xmlns:svg="http://www.w3.org/2000/svg">
  <defs
     id="defs2" />
  <sodipodi:namedview
     id="namedview2"
     pagecolor="#ffffff"
     bordercolor="#000000"
     borderopacity="0.25"
     inkscape:showpageshadow="2"
     inkscape:pageopacity="0.0"
     inkscape:pagecheckerboard="0"
     inkscape:deskcolor="#d1d1d1"
     inkscape:zoom="73.4375"
     inkscape:cx="8"
     inkscape:cy="8"
     inkscape:window-width="2560"
     inkscape:window-height="1377"
     inkscape:window-x="1592"
     inkscape:window-y="-8"
     inkscape:window-maximized="1"
     inkscape:current-layer="svg2" />
  <path
     id="path1"
     d="m 8.5996094,1 c -1.6,-0.1 -3.2,0.2992188 -4.5,1.1992188 C 2.6996094,3.0992188 1.8007812,4.4 1.3007812,6 0.80077825,7.5 0.899997,9.1992088 1.5,10.699219 c 0.6,1.5 1.6996094,2.7 3.0996094,3.5 1.4,0.8 2.9996094,1.001172 4.5996094,0.701172 C 10.799219,14.600391 12.199219,13.7 13.199219,12.5 c 1,-1.3 1.601562,-2.8003906 1.601562,-4.4003906 0,-2 -0.7,-3.6996094 -2,-5.0996094 -1.1,-1.1 -2.601172,-1.899995 -4.2011716,-2 z M 7.5566406,1.9921875 C 7.8397057,1.9760426 8.122556,1.9786281 8.4003906,2 9.8003906,2.1 11,2.6992188 12,3.6992188 13.1,4.7992187 13.699219,6.4 13.699219,8 13.799219,9.4 13.3,10.700781 12.5,11.800781 c -0.9,1.1 -2.100391,1.79961 -3.4003906,2.09961 -1.3,0.3 -2.7003906,0.10039 -3.9003906,-0.59961 -1.2,-0.7 -2.0992188,-1.7 -2.6992188,-3 C 1.9,9.0007712 1.9007813,7.6007812 2.3007812,6.3007812 2.7007812,4.9007813 3.4996094,3.8 4.5996094,3 c 0.00578,-0.00421 0.011779,-0.00754 0.017578,-0.011719 C 4.3765846,3.0666993 4.1357757,3.1430394 3.9003906,3.2363281 3.7362614,3.3013765 3.7193298,3.3116297 3.5585938,3.3847656 3.3377454,3.4896141 3.1239932,3.609449 2.9277344,3.7558594 2.8043578,3.8478991 2.7784852,3.8760068 2.6660156,3.9785156 2.5252321,4.1182067 2.4028646,4.2727879 2.2988281,4.4414062 2.2280451,4.5561288 2.110588,4.4856495 2.1816406,4.3710938 2.2927407,4.1919704 2.4237912,4.0250073 2.5742188,3.8769531 2.6931007,3.7689651 2.7193597,3.7395112 2.8496094,3.6425781 3.05265,3.4914733 3.2736293,3.3680812 3.5019531,3.2597656 3.6663798,3.1850399 3.6839299,3.1757603 3.8515625,3.109375 4.095985,3.0125795 4.3459015,2.9330306 4.5957031,2.8515625 4.7628372,2.7972558 4.9296366,2.7424352 5.0957031,2.6835938 5.8514027,2.2623653 6.7074454,2.0406222 7.5566406,1.9921875 Z" />
  <path
     d="M6.25 4.5L11.5 7.97949L6.25 11.5V4.5ZM7.125 9.85938L9.9209 7.98633L7.125 6.12695V9.85938Z"
     fill="#C5C5C5"
     id="path2" />
  <path
     style="fill:#c5c5c5;fill-opacity:1;stroke-width:0.013617"
     d="m 7.1285106,7.9931915 c 0,-1.0148085 0.00333,-1.8451064 0.0074,-1.8451064 0.014861,0 2.7568602,1.828062 2.7568602,1.8379693 0,0.010057 -2.7416079,1.8522435 -2.7565758,1.8522435 -0.00422,0 -0.00768,-0.8302979 -0.00768,-1.8451064 z"
     id="path3" />
  <path
     style="fill:#c5c5c5;fill-opacity:1"
     d="M 6.8629787,6.0459574 C 7.0151888,6.0966941 7.0679265,6.1128556 7.2442553,6.1821277 7.369603,6.2313714 7.4821479,6.2927775 7.5982979,6.3591489 7.6247346,6.3742557 7.6559653,6.3813064 7.68,6.4 7.697914,6.413933 7.704803,6.43842 7.720851,6.454468 7.732423,6.46604 7.75013,6.47013 7.761702,6.481702 c 0.00718,0.00718 0.00644,0.020057 0.013617,0.027234 0.00321,0.00321 0.010408,-0.00321 0.013617,0 0.00321,0.00321 0.00431,0.012182 0,0.013617 C 7.751942,6.534884 7.725025,6.514743 7.707234,6.481702 7.6455124,6.3670763 7.6200174,6.1793704 7.4893617,6.1140426 7.3943258,6.0665246 7.343041,6.2697663 7.3395745,6.3182979 c -0.010492,0.1468822 0.090437,0.4741968 0.1906383,0.5855319 0.023715,0.02635 0.054468,0.04539 0.081702,0.068085 0.022695,0.027234 0.044533,0.055206 0.068085,0.081702 0.011194,0.012593 0.1497872,0.1124523 0.1497872,0.1225532 0,0.01015 -0.00908,0.018156 -0.013617,0.027234"
     id="path4" />
  <path
     style="fill:#c5c5c5;fill-opacity:1"
     d="m 7.2306383,7.8706383 c -0.00454,0.04539 -0.026149,0.092309 -0.013617,0.1361702 0.087598,0.3065928 0.1757475,0.4299484 0.4629787,0.5855319 0.3336445,0.1807241 0.2305682,0.074663 0.4221277,0.1225532 0.022017,0.0055 -0.04539,0 -0.068085,0"
     id="path5" />
  <path
     style="fill:#c5c5c5;fill-opacity:1"
     d="M 6.9582979,9.3004255 C 7.1662572,9.2881006 7.522166,9.1164813 7.666383,9.0417021 7.6847198,9.0321942 8.1428962,8.7691554 8.0885106,8.6331915 8.0812736,8.6150988 8.0278447,8.6330532 7.9659574,8.6876596 7.9130111,8.7343769 7.8696098,8.7912945 7.8161702,8.8374468 7.6510367,8.9800621 7.6832967,8.9187581 7.5029787,9.0417021 7.4261,9.0941195 7.3509775,9.1539593 7.2987234,9.2323404 c -0.046006,0.06901 -0.00444,0.036408 0.013617,0.054468 0.016048,0.016048 0.00321,0.045618 0,0.068085 -0.025836,0.1808546 -0.095686,0.3497092 -0.1225532,0.5310638 -0.051761,0.3493888 0.027716,0.067122 -0.040851,0.2042558 -0.00406,0.0081 0.00812,0.02317 0,0.02723 -0.00812,0.0041 -0.019114,-0.0041 -0.027234,0 -0.00406,0.002 0.00406,0.01159 0,0.01362 -0.020729,0.01036 -0.086296,0 -0.1089361,0"
     id="path6" />
  <path
     style="fill:#c5c5c5;fill-opacity:1"
     d="M 9.1642553,8.4970213 C 8.9027568,8.7196818 8.5968658,8.8853079 8.292766,9.0417021 8.2439929,9.0667854 8.1902515,9.0819797 8.1429787,9.1097872 8.0873741,9.1424958 8.0435664,9.1920405 7.9931915,9.2323404 7.9118233,9.297435 7.8165599,9.3274926 7.7208511,9.3685106 7.6937716,9.3801161 7.655617,9.399546 7.652766,9.3957447 7.5535288,9.2634284 7.6664639,9.0960407 7.7344681,8.987234 7.7845268,8.9071401 7.8383125,8.8290491 7.8978723,8.7557447 8.0670403,8.547538 8.0985153,8.5707663 8.2519149,8.3608511 8.3400105,8.2402992 8.3888214,8.0980781 8.4153191,7.9523404 c 0.00406,-0.022329 0,-0.04539 0,-0.068085 0,-0.00454 0.00203,-0.017677 0,-0.013617 -0.019245,0.038489 0.00221,0.3739327 0,0.3948936 C 8.3889419,8.5161157 8.3041485,8.776065 8.2246809,9.0144681 8.1237997,9.3171117 7.9753781,9.5857956 7.8161702,9.8587234 7.7716002,9.9351292 7.7387092,9.9372447 7.68,9.9812766 c -0.010271,0.0077 -0.016225,0.020628 -0.027234,0.027234 -0.012308,0.0074 -0.028908,0.0057 -0.040851,0.01362 -0.00378,0.0025 0,0.0091 0,0.01362"
     id="path7" />
  <path
     style="fill:#c5c5c5;fill-opacity:1"
     d="m 6.6995745,9.3685106 c 0.031026,0.018616 0.1170847,0.072618 0.1497872,0.081702 0.053205,0.014779 0.1088894,0.018441 0.1634043,0.027234 0.2307669,0.037221 0.3176238,0.055076 0.5582978,0.068085 0.067986,0.00367 0.1389755,0.019342 0.2042553,0 C 7.8380845,9.5269348 7.8833269,9.471475 7.9387234,9.4365957 8.0059145,9.3942903 8.0743945,9.35405 8.1429787,9.3140426 8.1932231,9.2847333 8.4153191,9.1804147 8.4153191,9.0961702"
     id="path8" />
  <path
     style="fill:#c5c5c5;fill-opacity:1"
     d="M 7.8706383,9.0417021 C 7.691105,9.3687165 7.4532286,9.6633672 7.1897872,9.9268085"
     id="path9" />
  <path
     style="fill:#c5c5c5;fill-opacity:1"
     d="M 6.9855319,9.8042553 C 7.062695,9.7906383 7.1407752,9.7814625 7.2170213,9.7634043 7.313486,9.7405573 7.4065411,9.7046635 7.5029787,9.6817021 7.7099463,9.6324241 7.9207401,9.6008733 8.1293617,9.5591489"
     id="path10" />
  <path
     style="fill:#c5c5c5;fill-opacity:1"
     d="m 7.8842553,9.1914894 c -0.1776392,0.2329729 -0.4209864,0.4190231 -0.64,0.6127659 -0.080251,0.070991 -0.1177852,0.068085 -0.068085,0.068085"
     id="path11" />
  <path
     style="fill:#c5c5c5;fill-opacity:1"
     id="path14"
     d="m 7.0314346,8.2628616 c 0.033998,0.00745 0.062961,0.034928 0.092556,0.05303 0.039334,0.02664 0.080266,0.05073 0.1194512,0.07758 0.020189,0.010157 0.068408,0.055985 0.091798,0.048426 0.00559,-0.00181 0.00916,-0.00737 0.013736,-0.011053 0.00291,-0.00966 0.00693,-0.019053 0.00873,-0.028979 0.00233,-0.012878 0.00359,-0.026008 0.00362,-0.039096 C 7.3621171,7.971615 7.4415107,7.5493148 7.331636,7.1626396 7.2946891,7.034809 7.253973,6.9081442 7.2118467,6.7819427 7.1904451,6.7124274 7.1652208,6.6437118 7.1503354,6.5723344 c -0.00492,-0.023605 -0.00904,-0.047421 -0.011681,-0.071389 -0.00269,-0.02439 -0.00429,-0.098028 -0.00429,-0.07349 -8.28e-5,0.2864832 0.00271,0.57296 0.00407,0.8594399 0.04911,-0.4036999 0.015256,-0.7780329 0.00836,-1.2081262 -4.158e-4,-0.025924 -0.012808,-0.037374 -0.026597,-0.055267 -0.0057,-0.00233 -0.010959,-0.00648 -0.017094,-0.00699 -0.046259,-0.00382 -0.057789,0.094446 -0.062877,0.1234838 -0.033086,0.3937307 -0.00732,0.073198 -0.00343,1.106992 1.998e-4,0.053059 0.016398,0.1189119 0.028136,0.1708634 0.00974,0.032747 0.024732,0.093072 0.07201,0.086413 0.018953,-0.00267 0.032669,-0.016329 0.046936,-0.027178 0.026442,-0.017197 0.044284,-0.050904 0.068079,-0.070037 0.00174,-0.0014 0.00653,6.37e-4 0.00651,-0.0016 -0.00218,-0.3570131 -0.00871,-0.7139864 -0.01307,-1.0709797 -0.033919,0.073154 -0.086069,0.1383724 -0.1102431,0.2160635 -0.00519,0.016686 -0.00792,0.034039 -0.011886,0.051059 -0.02219,0.3954624 -0.012795,0.2074739 0.00144,1.101741 2.987e-4,0.018764 0.00761,0.036795 0.012862,0.054811 0.017409,0.059694 0.043706,0.1166538 0.069028,0.1732415 0.020908,0.03406 0.043321,0.1028441 0.094262,0.1059441 0.04562,0.00278 0.078959,-0.053906 0.1016928,-0.083333 C 7.6085568,7.6576368 7.885484,6.7098471 7.4599078,6.7513586 7.3954841,6.8440695 7.3145,6.9232299 7.2400948,7.0076222 6.9339222,7.3578565 7.1645509,7.1888915 7.1688305,8.1970788 c 0.00238,3.51e-4 0.00475,0.0014 0.00713,0.00105 0.00473,-6.996e-4 0.00842,-0.00554 0.013196,-0.00561 0.00137,-2.09e-5 0.00229,0.0015 0.00344,0.00226 -2.72e-5,-0.3648098 0.00235,-0.7296277 -8.18e-5,-1.0944294 -1.083e-4,-0.016261 -0.00459,0.032197 -0.00689,0.048296 -0.028199,0.1393234 -0.068491,0.2756661 -0.094116,0.4155435 -0.00215,0.021088 -0.00525,0.042102 -0.00645,0.063265 -0.00115,0.020115 -6.784e-4,0.040293 -5.94e-4,0.060441 0.00144,0.3440232 -1.676e-4,0.6880809 0.00517,1.0320657 4.108e-4,0.026486 0.018914,0.08745 0.02971,0.1122939 0.00653,0.015027 0.015776,0.028722 0.023664,0.043083 0.028958,0.051613 0.0998,0.069033 0.1210858,0.1257441 0.00313,0.00833 0.00291,0.017546 0.00437,0.026319 -0.00129,-0.3388541 5.653e-4,-0.6777348 -0.00386,-1.0165624 -1.646e-4,-0.012589 -0.0056,0.024557 -0.00894,0.036696 -0.00768,0.027913 -0.020406,0.055159 -0.020186,0.084653 0.00268,0.3598526 0.00647,0.7196962 0.00971,1.0795442 0.00741,0.00172 0.01475,0.00661 0.022217,0.00517 0.021997,-0.00423 0.060175,-0.034884 0.074374,-0.046007 0.021303,-0.016689 0.071211,-0.057792 0.086675,-0.07979 0.012685,-0.018046 0.019612,-0.039517 0.029418,-0.059276 0.00459,-0.022336 0.011288,-0.044341 0.013763,-0.067009 0.00243,-0.022234 0.00107,-0.044726 8.774e-4,-0.067092 C 7.4696329,8.5550608 7.4717651,8.2122921 7.4624209,7.8697407 7.4617148,7.8438557 7.4278519,7.7723007 7.4152209,7.750484 7.4052909,7.73333 7.3927339,7.717837 7.3814899,7.701514 7.3496749,7.665873 7.2722053,7.5854917 7.2162256,7.5978594 c -0.00659,0.00146 -0.011768,0.00662 -0.017651,0.00994 -0.027931,0.042043 -0.024433,0.097259 -0.026153,0.1457402 -0.00367,0.1033385 2.5e-5,0.024469 -0.00564,0.1317994 -0.027526,0.3972023 -0.014226,0.184764 -0.00351,1.0979119 2.193e-4,0.018699 0.00509,0.037446 0.012108,0.054778 0.01885,0.046526 0.054337,0.050564 0.097856,0.057223 0.033158,0.00787 0.073385,0.00382 0.1043691,0.020662 0.022802,0.012393 0.020406,0.018573 0.026437,0.039967 -0.00417,-0.3430884 -0.00835,-0.6861767 -0.012523,-1.029265 -0.05296,0.1284918 -0.1592278,0.2179084 -0.2619605,0.3060801 -0.028163,0.024008 -0.041014,0.036538 -0.070557,0.056438 -0.010633,0.00716 -0.028036,0.022747 -0.036234,0.012892 -0.00336,-0.00404 -0.00118,-0.020956 -0.00115,-0.015706 0.00195,0.3638217 0.00461,0.7276393 0.00692,1.0914589 0.00374,-0.010326 0.00739,-0.020689 0.01123,-0.030979 0.00996,-0.026685 0.015047,-0.037864 0.024217,-0.064893 0.00939,-0.027675 0.015829,-0.055705 0.027735,-0.082411 0.00254,-0.00167 0.00463,-0.00553 0.00762,-0.005 0.00323,5.681e-4 0.00419,0.00505 0.00642,0.00747 0.016606,0.018048 0.015206,0.034145 0.018144,0.058622 0.00604,0.093104 0.011298,0.1862625 0.018595,0.2792866 0.060087,0.5620085 0.3747614,-0.8759933 -8.658e-4,-0.9980249 -0.035321,-0.013251 -0.063072,-0.038887 -0.091088,-0.063127 -0.019181,-0.016595 -0.00989,-0.00576 -0.022204,-0.022426 -0.00961,1.9380844 -0.3488082,1.0577511 0.069791,1.0998485 0.052268,0.00526 0.1027296,0.018131 0.1534075,0.031315 0.054641,0.017755 0.109958,0.034414 0.1629551,0.056826 0.027277,0.011535 0.061442,0.026706 0.083592,0.047722 0.00947,0.00899 0.015547,0.020982 0.023321,0.031473 0.083642,0.3624859 0.036469,0.1679549 -0.00294,-1.0044825 -5.11e-4,-0.015204 -0.014619,0.026778 -0.023553,0.039092 -0.027829,0.038358 -0.064208,0.067252 -0.1009523,0.096354 -0.030638,0.021868 -0.060048,0.046805 -0.094153,0.063401 -0.0066,0.00321 -0.013508,0.00607 -0.020709,0.0075 -0.00316,6.269e-4 -0.00953,-0.00472 -0.00954,-0.0015 -0.00175,0.3656794 0.00286,0.7313616 0.00429,1.0970424 0.097028,-0.06229 0.1988167,-0.07437 0.3113021,-0.07917 0.043746,0.0028 0.1105099,-0.0066 0.1496626,0.02071 0.00809,0.0057 0.01698,0.03407 0.017071,0.0242 0.010288,-1.1198103 0.2293331,-1.3551239 -0.038361,-1.0481705 -0.016296,0.010085 -0.031614,0.021953 -0.048887,0.030254 -0.066787,0.032098 -0.1621632,0.0476 -0.2353148,0.032272 -0.015993,-0.00335 -0.030894,-0.010655 -0.046341,-0.015982 -0.026165,-0.019977 -0.041341,-0.025119 -0.052982,-0.056934 -0.00335,-0.00915 -0.00307,-0.038831 -0.00295,-0.029087 0.00405,0.3377658 -9.39e-4,0.6758378 0.014758,1.0132635 8.361e-4,0.01797 0.018799,-0.03083 0.030301,-0.04467 0.012288,-0.01478 0.027169,-0.02719 0.040753,-0.04079 0.014018,-0.0096 0.027185,-0.02054 0.042054,-0.028743 0.030687,-0.016921 0.029412,-0.014083 0.057491,-0.013423 -0.00617,-0.3559362 0.00196,-0.7124082 -0.018508,-1.0678087 -9.5e-4,-0.016492 -0.026437,0.020262 -0.041434,0.02719 -0.016008,0.0074 -0.033752,0.01023 -0.050627,0.015345 -0.049327,0.00791 -0.099912,0.015961 -0.1501247,0.013203 -0.021305,-0.00117 -0.048349,-0.00269 -0.063678,-0.021403 -0.00499,-0.00609 -0.00449,-0.015087 -0.00674,-0.022631 0.00405,0.3642614 -8.32e-4,0.7287312 0.012136,1.0927842 3.81e-4,0.0107 0.016417,-0.01416 0.026126,-0.01867 0.028575,-0.01326 0.069847,-0.016113 0.097764,3.21e-4 0.00862,0.0051 0.014574,0.01369 0.021861,0.02054 0.1455364,0.338847 0.020575,0.05665 0.00899,-1.0051727 -1.267e-4,-0.011621 -0.00568,0.022567 -0.00947,0.033554 -0.00851,0.024687 -0.020106,0.047303 -0.035485,0.06826 -0.2693496,0.2438793 -0.034696,0.03035 0.016059,1.0829597 6.651e-4,0.0138 0.020946,-0.01813 0.032485,-0.02572 0.034894,-0.02295 0.07415,-0.03537 0.1134397,-0.04813 0.3816701,-0.08405 0.050683,-0.3810243 0.018525,-1.0957258 -5.177e-4,-0.011507 -0.022926,0.00266 -0.034444,0.00277 -0.050071,4.751e-4 -0.049107,-0.00232 -0.099724,-0.012984 C 7.2846051,9.0029266 7.1739892,8.9747587 7.1521666,8.8983463 7.1488961,8.8868946 7.151563,8.8745347 7.1512612,8.862629 7.1461516,10.394176 7.0276913,10.01109 7.2482146,9.6739073 7.305608,9.586152 7.3744382,9.5081204 7.4435294,9.4296465 7.56922,9.2935227 7.7060031,9.1668725 7.8585814,9.0612304 c 0.031167,-0.021579 0.063512,-0.041404 0.095268,-0.062106 0.1249049,-0.075204 0.2569617,-0.138176 0.3955616,-0.1837221 0.076157,-0.025026 0.1058484,-0.030767 0.1824616,-0.049494 0.1147911,-0.023568 0.2325371,-0.052379 0.3507888,-0.046175 0.016952,8.894e-4 0.033731,0.00386 0.050596,0.00579 0.036757,0.00878 0.074772,0.022273 0.091325,0.059834 0.00335,0.00759 0.00421,0.032832 0.00415,0.024537 C 9.0217201,7.7542695 9.206702,7.488146 8.9920981,7.8153512 8.8995763,7.9174264 8.7806886,7.9932543 8.6672719,8.0700656 8.5976157,8.1131742 8.524559,8.1527787 8.4472926,8.1807328 c -0.026653,0.00964 -0.071603,0.023824 -0.102642,0.020785 -0.00827,-8.096e-4 -0.015202,-0.00671 -0.022802,-0.010066 -0.019497,-0.387825 -3.811e-4,0.7137025 0.018945,1.0698516 8.439e-4,0.015553 0.024461,-0.019389 0.037648,-0.027678 0.016684,-0.010488 0.034158,-0.019708 0.051777,-0.028535 0.051859,-0.025982 0.077608,-0.034659 0.1323937,-0.056271 C 8.727458,9.0914554 8.8936346,9.0385055 9.0569311,8.9767453 9.2334412,8.9020313 9.4185905,8.8533774 9.6057519,8.8144544 c 0.055783,-0.01007 0.1137291,-0.022477 0.1709229,-0.016583 0.023594,0.00243 0.021711,0.003 0.035156,0.013654 -0.00214,-0.3657769 -0.00427,-0.7315538 -0.00641,-1.0973306 -0.058823,0.020033 -0.1210281,0.00831 -0.1812762,0.0026 -0.070785,-0.00883 -0.1417644,-0.00677 -0.2126837,-0.00167 -0.1035561,0.00992 -0.207162,0.014993 -0.3109362,0.00677 -0.026053,-0.00951 -0.051468,-0.012186 -0.065838,-0.039407 -0.00426,-0.00807 -0.00301,-0.03635 -0.00288,-0.027225 0.00519,0.3596433 -9.397e-4,0.7197124 0.018054,1.0788914 8.63e-4,0.01632 0.023774,-0.022653 0.037316,-0.031801 0.016432,-0.0111 0.034763,-0.019087 0.052145,-0.02863 0.119803,-0.047856 0.2494661,-0.061234 0.3757693,-0.082873 0.086666,-0.016887 0.1745641,-0.024935 0.2626398,-0.029177 0,0 0,-1.0129126 0,-1.0129126 v 0 c -0.086878,0.026073 -0.1730471,0.055042 -0.2626398,0.070844 -0.1242256,0.025428 -0.2482442,0.060704 -0.3757693,0.061889 -0.017382,-0.00209 -0.035015,-0.00266 -0.052145,-0.00627 -0.012845,-0.00271 -0.036645,-0.0257 -0.037316,-0.01259 -0.01865,0.3644754 -0.012924,0.7297917 -0.018054,1.0947079 -7.16e-5,0.00509 -4.967e-4,-0.011193 0.00288,-0.015012 0.016403,-0.018573 0.0443,-0.020726 0.065838,-0.026083 0.1041909,-0.00505 0.2078906,0.0031 0.3109362,0.019261 0.0706,0.00999 0.1413513,0.01836 0.2126837,0.020816 0.063304,0.00417 0.133964,0.00224 0.1812762,0.051132 0.00214,-0.3602358 0.00427,-0.7204716 0.00641,-1.0807073 -0.00305,0.00956 -0.0042,0.019941 -0.00914,0.028671 -0.00696,0.012288 -0.015945,0.023532 -0.026013,0.033433 -0.047934,0.047134 -0.1116076,0.074831 -0.1709229,0.1037734 -0.1769321,0.07955 -0.3589245,0.1467504 -0.5488208,0.1885747 -0.1639225,0.043386 -0.3267511,0.092458 -0.4943188,0.1202594 -0.059993,0.00718 -0.1240959,0.018903 -0.1841703,0.00409 -0.013194,-0.00325 -0.03692,-0.029209 -0.037648,-0.01564 -0.018832,0.3509542 -0.029203,1.468631 -0.018945,1.054207 0.0076,-0.01385 0.013104,-0.029079 0.022802,-0.041551 0.024955,-0.032094 0.070258,-0.066384 0.102642,-0.088385 0.068999,-0.046877 0.1438047,-0.085585 0.2199793,-0.1192063 0.1101779,-0.046054 0.2189681,-0.094848 0.3248262,-0.1502308 0.3360307,-0.2005086 0.030005,-0.00796 0.036638,-1.0996108 4.1e-5,-0.00675 1.449e-4,-0.014622 -0.00415,-0.019833 -0.015041,-0.018238 -0.075204,6.122e-4 -0.091325,0.0018 C 8.7949703,7.7607191 8.6625615,7.8120334 8.5318727,7.8680454 8.3351188,7.9521004 8.1373503,8.0365962 7.9538495,8.1474317 7.8787516,8.1940542 7.8383384,8.2167502 7.7678272,8.2700088 7.652689,8.356975 7.5505114,8.4596733 7.4435294,8.5560514 7.3781513,8.6168695 7.3117919,8.6768452 7.2482146,8.7395669 c -0.015718,0.015507 -0.031571,0.030915 -0.046389,0.047284 -0.011723,0.01295 -0.032348,0.023135 -0.033151,0.040584 -0.016217,0.3523976 -0.011609,0.7054457 -0.017413,1.0581685 3.018e-4,0.01495 -0.00325,0.030485 9.054e-4,0.04485 0.010954,0.037897 0.065586,0.045286 0.095949,0.053365 0.076505,0.020357 0.022416,0.00463 0.1014175,0.028768 0.04371,0.01774 0.062391,0.02159 0.099724,0.05171 0.012856,0.01037 0.033654,0.05213 0.034444,0.03563 0.016815,-0.3510094 0.00957,-0.7027596 0.014348,-1.0541398 -0.00265,0.00997 -0.00276,0.020984 -0.00794,0.029898 -0.00611,0.010515 -0.01662,0.017762 -0.024929,0.026644 -0.034733,0.018389 -0.072246,0.039291 -0.1134397,0.035933 -0.01127,-9.186e-4 -0.031948,-0.021058 -0.032485,-0.00976 -0.085909,1.8062678 -0.050432,1.4211348 -0.016059,1.0545878 0.013409,-0.03892 0.00575,-0.01942 0.022929,-0.05796 0.00137,-0.0031 0.021968,-0.04776 0.022024,-0.05351 0.010513,-1.0740135 0.1664866,-0.7631571 -0.00899,-1.104355 -0.00729,-0.00277 -0.01424,-0.00667 -0.021861,-0.00831 -0.00461,-9.92e-4 -0.062625,-0.00562 -0.065159,-0.00598 -0.010972,-0.00155 -0.022141,-0.00284 -0.032605,-0.00648 -0.00933,-0.00325 -0.017417,-0.00932 -0.026126,-0.013982 -0.00405,0.3659163 -0.00809,0.7318327 -0.012136,1.097749 0.00225,-0.0066 0.00224,-0.01445 0.00674,-0.01976 0.014315,-0.016868 0.044702,-0.025631 0.063678,-0.030955 0.048764,-0.013682 0.099596,-0.020514 0.1501247,-0.022029 0.016876,0.00224 0.034534,0.00118 0.050627,0.00673 0.015254,0.00526 0.040498,0.04115 0.041434,0.02504 0.020434,-0.3517483 0.012339,-0.7045747 0.018508,-1.056862 -0.00738,0.011504 -0.01336,0.024034 -0.022133,0.034513 -0.024935,0.029784 -0.046056,0.04182 -0.077412,0.064284 -0.3697384,0.2136476 -0.076416,0.242967 -0.085812,1.1199784 -4.591e-4,0.04285 0.019123,0.03985 0.055933,0.0415 0.058481,-0.0043 0.038471,-0.002 0.1013176,-0.01038 0.076536,-0.01021 0.1536537,-0.02723 0.2292256,-0.0013 0.3365541,0.216592 0.048533,0.04358 0.038361,-1.0721257 -9.03e-5,-0.00991 -0.00936,0.018105 -0.017071,0.024331 -0.041065,0.033172 -0.1009193,0.033689 -0.1496626,0.043258 -0.1048109,0.012177 -0.2277256,0.024848 -0.3113021,-0.053472 -0.00143,0.3607665 -0.00286,0.721533 -0.00429,1.0822997 0.011078,-0.03007 0.00705,-0.0268 0.030253,-0.05343 0.027844,-0.03195 0.061905,-0.05791 0.094153,-0.08506 0.032998,-0.02692 0.065825,-0.05254 0.1009523,-0.07659 0.0079,-0.00541 0.023262,-0.00687 0.023553,-0.016438 C 7.5503117,8.92528 7.6986788,9.2074333 7.52138,8.8762449 7.4320693,8.8521257 7.3382706,8.8438244 7.2515123,8.8094186 7.1970414,8.7870801 7.1454444,8.7640711 7.0981048,8.7283323 6.781438,8.4892667 7.0430992,7.7469362 7.0283136,9.755887 c 0.036198,-0.035201 0.091449,0.023481 0.1132923,0.049161 0.2087239,0.331946 0.021389,0.044649 0.024866,-1.0558204 5.2e-6,-0.00166 -0.0041,0.010378 -0.011739,0.00484 -0.00885,-0.00641 -0.010378,-0.024254 -0.012262,-0.031869 -0.010012,-0.096213 -0.013996,-0.1928644 -0.018595,-0.2894521 -0.00272,-0.03927 -0.00298,-0.081821 -0.012594,-0.1203195 -9.534e-4,-0.00382 -0.00196,-0.012038 -0.00555,-0.010426 -0.013565,0.00609 0.00112,0.03987 -0.014037,0.042343 -0.00991,0.038441 -0.023176,0.1066238 -0.051952,0.1354983 -0.003,0.00301 -0.00749,0.00402 -0.01123,0.00603 -0.00231,0.369577 -0.00461,0.739154 -0.00692,1.108731 0.00138,-0.02845 -0.00108,-0.027262 0.01385,-0.057481 0.023619,-0.047796 0.059864,-0.088257 0.094091,-0.1284334 0.078416,-0.088406 0.1575589,-0.1810281 0.2619605,-0.2395268 0.00417,-0.3627149 0.010403,-0.725412 0.012523,-1.0881447 2.78e-5,-0.00476 -0.0017,-0.011066 -0.00609,-0.01291 -0.00628,-0.00264 -0.01357,0.00117 -0.020351,0.0018 -0.03476,0.0032 -0.069534,0.00607 -0.1043691,0.0011 -0.032812,-0.00874 -0.075998,-0.017564 -0.097856,-0.047383 -0.00632,-0.00862 -0.011956,-0.040353 -0.012108,-0.029672 -0.016742,1.1742256 -0.021516,1.221966 0.00351,0.8684545 0.00798,-0.113901 -1.86e-5,0.00531 0.00564,-0.092697 0.00198,-0.034275 0.00403,-0.067977 0.026153,-0.096004 0.00588,-0.00554 0.011065,-0.011942 0.017651,-0.016628 0.055995,-0.039832 0.119815,-0.0078 0.1652643,0.031889 0.031814,0.036614 0.040839,0.041734 0.06128,0.087785 0.0082,0.018475 0.018937,0.07757 0.019651,0.057369 0.010584,-0.2995907 0.00678,-0.5995168 0.010092,-0.899276 2.371e-4,-0.021481 0.00165,0.043107 -8.774e-4,0.064441 -0.00238,0.020159 -0.00918,0.039549 -0.013763,0.059323 -0.00981,0.016162 -0.016818,0.034394 -0.029418,0.048487 -0.011842,0.013245 -0.027272,0.023047 -0.042588,0.032052 -0.045102,0.026519 -0.09511,0.031055 -0.1406784,0.00447 -0.00324,0.3473192 -0.00688,0.6946348 -0.00971,1.0419576 -9.25e-5,0.011383 -7.21e-5,-0.022845 0.00151,-0.034117 0.00323,-0.022987 0.011794,-0.044998 0.018673,-0.066971 0.00309,-0.00986 0.00882,-0.019341 0.00894,-0.029669 0.00415,-0.3595984 0.00258,-0.7192401 0.00386,-1.0788601 -0.00146,-0.00981 -7.666e-4,-0.020199 -0.00437,-0.029443 -0.01043,-0.026744 -0.042255,-0.035683 -0.06458,-0.047989 -0.030344,-0.016725 -0.029081,-0.017737 -0.056506,-0.039868 -0.023778,-0.028771 -0.028735,-0.029836 -0.04161,-0.067347 -0.00533,-0.015535 -0.011443,-0.064268 -0.011764,-0.047847 -0.00596,0.3041161 -0.00352,0.6083387 -0.00517,0.9125087 -1.202e-4,0.022233 -5.632e-4,-0.044494 5.94e-4,-0.066697 0.00119,-0.022921 0.0043,-0.045703 0.00645,-0.068554 0.018681,-0.1073222 0.039406,-0.2230049 0.094116,-0.3185449 0.3148446,-0.2108861 0.01034,-0.00416 0.00697,-1.1166718 -1.76e-5,-0.00581 -3.896e-4,0.00568 -0.00913,0.00996 -0.0038,0.00186 -0.010572,0.00157 -0.014627,0.00165 -0.00156,0.3623714 -0.00329,0.7247421 -0.00467,1.0871142 -3.08e-5,0.00813 -5.421e-4,-0.016346 6.385e-4,-0.024395 0.00865,-0.058959 0.043723,-0.1097819 0.075292,-0.1585562 0.041001,-0.057414 0.1139993,-0.1628586 0.1902682,-0.1731127 0.00987,-0.00133 0.019697,0.00299 0.029545,0.00448 0.3627394,-0.036505 0.025748,0.0026 0.016193,-1.049024 -1.259e-4,-0.013859 -0.00559,0.027205 -0.00985,0.040395 -0.014249,0.044144 -0.036843,0.085495 -0.063702,0.1230995 -0.010415,0.010031 -0.019554,0.021582 -0.031244,0.030093 -0.036556,0.026615 -0.097763,0.039844 -0.1363118,0.00894 -0.011381,-0.00912 -0.018933,-0.022195 -0.028399,-0.033293 -0.028462,-0.054768 -0.053557,-0.109112 -0.069028,-0.1692555 -0.00543,-0.021104 -0.012422,-0.085882 -0.012862,-0.064095 -0.025665,1.2715686 -0.023565,1.2238484 -0.00144,0.8818149 0.00396,-0.015463 0.00683,-0.031247 0.011886,-0.046388 0.015153,-0.045405 0.047376,-0.1095596 0.089629,-0.1360834 0.00613,-0.00385 0.013743,-0.00454 0.020614,-0.00681 0.00436,-0.3643892 0.01084,-0.7287591 0.01307,-1.0931675 4.61e-5,-0.00754 -0.0035,0.014743 -0.00651,0.021651 -0.014362,0.032919 -0.040227,0.061399 -0.068079,0.083214 -0.00773,0.00388 -0.015043,0.00872 -0.023181,0.011645 -0.027295,0.00981 -0.064804,0.00751 -0.083604,-0.017924 -0.00545,-0.00737 -0.00811,-0.016431 -0.012162,-0.024646 -0.0109,-0.039165 -0.019328,-0.078077 -0.02404,-0.1185514 -0.00182,-0.015598 -0.00403,-0.062634 -0.0041,-0.046931 -0.00463,1.0387072 -0.032781,1.306001 0.00343,0.9472737 0.010932,-0.046168 0.023933,-0.08688 0.079972,-0.080367 0.020042,0.00828 0.011232,0.00252 0.026597,0.017004 0.00202,-0.326747 0.00405,-0.653494 0.00607,-0.980241 1.348e-4,-0.022196 4.562e-4,0.044412 -5.267e-4,0.066586 -0.00214,0.048308 -0.00891,0.1062988 -0.013903,0.1543001 -0.00136,0.3381385 -0.00414,0.6762742 -0.00407,1.0144153 1.09e-5,0.05224 0.00573,0.1017555 0.015975,0.1528923 0.014199,0.070869 0.039714,0.138314 0.061511,0.2069955 0.044923,0.1383934 0.0884,0.277528 0.1197893,0.4197258 0.00961,0.045846 0.016541,0.074669 0.022909,0.1203782 0.00235,0.016872 0.00532,0.067848 0.00544,0.050814 0.00238,-0.3333713 8.891e-4,-0.666759 0.00133,-1.0001384 -0.00452,0.02716 2.435e-4,0.015468 -0.012341,0.035811 -0.04469,0.028495 -0.065628,0.0025 -0.1055336,-0.02082 -0.040252,-0.025734 -0.079636,-0.052844 -0.1194512,-0.079247 -0.033954,-0.026848 -0.071229,-0.052189 -0.092556,-0.091006 z" />
  <path
     style="fill:#c5c5c5;fill-opacity:1"
     id="path15"
     d="M 9.5665917,7.1822172 C 9.533548,7.1926183 9.4965329,7.1840949 9.4639499,7.1755945 9.4023874,7.1583607 9.342572,7.1348939 9.2839554,7.1094897 9.218797,7.077881 9.1531307,7.0473194 9.0881515,7.0153412 9.015325,6.9766514 8.9362869,6.9542147 8.8603129,6.9229663 8.7648842,6.8792918 8.668037,6.8387002 8.5740981,6.791861 8.4825109,6.7387451 8.3862945,6.6943789 8.2949763,6.6408805 8.2050156,6.5869103 8.1187847,6.527068 8.0310184,6.4696719 7.9420654,6.4087617 7.8554016,6.3444821 7.7697658,6.2789991 7.6837054,6.2106978 7.5983881,6.1413802 7.5147202,6.070161 7.461914,6.0233229 7.4126726,5.9726858 7.3624701,5.9231182 c 0,0 0,1.0083414 0,1.0083414 v 0 c 0.05171,0.04014 0.1027955,0.081079 0.1522501,0.1239913 0.082166,0.073134 0.164527,0.1460656 0.2550456,0.2089493 0.086379,0.067594 0.1705282,0.1380798 0.2612526,0.1999553 0.08403,0.061507 0.173313,0.1142624 0.2639579,0.1653946 0.090753,0.054695 0.1807569,0.110825 0.2791218,0.1512384 0.095835,0.046703 0.1897254,0.097228 0.2862148,0.1425989 0.02739,0.014556 0.061402,0.032072 0.087931,0.048351 0.013504,0.00829 0.026008,0.018154 0.039641,0.026228 0.032109,0.019018 0.067592,0.032007 0.1002665,0.049953 0.064934,0.031688 0.1300813,0.06289 0.1958039,0.092928 0.060631,0.029715 0.1201753,0.061632 0.1799945,0.092933 0.034307,0.016989 0.068544,0.034397 0.1026418,0.051615 z" />
  <path
     style="fill:#c5c5c5;fill-opacity:1"
     id="path16"
     d="M 8.0562249,6.3208283 C 8.0166741,6.3047323 7.9853819,6.2738525 7.9524866,6.2472673 7.9015404,6.2011644 7.8510972,6.1545838 7.7992999,6.1094123 7.7414944,6.0568153 7.6799888,6.0085601 7.616447,5.9631394 7.5447583,5.9142055 7.4674744,5.8744558 7.3886614,5.8384662 7.3175235,5.8085358 7.2469506,5.7773335 7.1765068,5.7458148 c 0,0 0,1.0170123 0,1.0170123 v 0 c 0.072634,0.02294 0.1443726,0.048603 0.2121546,0.083786 0.079591,0.040519 0.1564442,0.085851 0.2277856,0.1398332 0.064159,0.046661 0.1251345,0.097159 0.1828529,0.15164 0.051887,0.050358 0.1035068,0.1011032 0.1531867,0.153639 0.037711,0.040102 0.080277,0.077356 0.1037383,0.1282896 z" />
  <path
     style="fill:#c5c5c5;fill-opacity:1"
     id="path17"
     d="m 9.006464,8.3801933 c 0.044692,-0.039856 0.1055372,-0.054421 0.1630643,-0.063947 0.084732,-0.010763 0.1702055,-0.013008 0.2555078,-0.011343 0.074601,-8.405e-4 0.1489806,0.00555 0.2227405,0.016179 0.062649,0.01045 0.1227006,0.030806 0.1824047,0.051786 0.06055,0.021028 0.1175211,0.050042 0.1739487,0.080092 0.04904,0.026539 0.09946,0.050445 0.149608,0.074812 0.02836,0.013398 0.05703,0.026062 0.08507,0.04012 0,0 0,-1.0671224 0,-1.0671224 v 0 c -0.02836,-0.010355 -0.05668,-0.020818 -0.08507,-0.031073 -0.05065,-0.01927 -0.09999,-0.041479 -0.149608,-0.063227 -0.05815,-0.025615 -0.1157432,-0.052425 -0.1739487,-0.077857 -0.058859,-0.02235 -0.1192525,-0.040896 -0.1824047,-0.045772 -0.07431,-0.0055 -0.1483989,-9.955e-4 -0.2227405,0.00224 -0.0851,0.0047 -0.1703425,0.0055 -0.2555078,0.00857 -0.032388,-1.634e-4 -0.045886,6.927e-4 -0.077674,-0.00297 -0.010631,-0.00122 -0.021059,-0.00389 -0.031683,-0.00518 -0.018168,-0.0022 -0.036975,-4.045e-4 -0.053707,-0.00949 z" />
  <path
     style="fill:#c5c5c5;fill-opacity:1"
     id="path18"
     d="m 10.179358,7.3733868 c -0.03664,0.019904 -0.07928,0.024726 -0.119835,0.031734 -0.066238,0.00781 -0.1329887,0.00507 -0.1993474,0.010534 -0.098029,0.012981 -0.1965023,0.00192 -0.2946702,-0.00198 -0.1010049,-0.00278 -0.2000486,-0.024245 -0.3009061,-0.02779 -0.1264598,0.00524 -0.2530105,0.011482 -0.3792288,0.021289 -0.026927,0.00249 -0.053944,0.00415 -0.080782,0.00747 -0.030525,0.00377 -0.060692,0.010158 -0.091237,0.013759 -0.1271862,0.014994 -0.2548422,0.014586 -0.3826449,0.013977 0,0 0,0.9028766 0,0.9028766 v 0 c 0.030349,-0.00386 0.060596,-0.00865 0.091048,-0.01159 0.096561,-0.00933 0.1948728,-0.010324 0.2915968,-0.00246 0.030529,0.00248 0.060777,0.0077 0.091237,0.010923 0.026886,0.00284 0.053855,0.00483 0.080782,0.00725 0.1267763,0.010797 0.2535863,0.0199 0.3792288,0.040904 0.1001212,0.00936 0.2009405,0.00401 0.3009061,0.016398 0.098563,0.010031 0.197586,0.016939 0.2946702,0.037966 0.066241,0.00981 0.132559,0.0082 0.1993475,0.010335 0.04015,0.00461 0.08214,0.00624 0.119835,0.021843 z" />
  <path
     style="fill:#c5c5c5;fill-opacity:1"
     id="path19"
     d="m 6.6785147,10.085052 c 0.050453,-0.01329 0.1024645,-0.02123 0.1542016,-0.02798 0.1006846,-0.0044 0.1987246,-0.02289 0.2961545,-0.04756 C 7.2534389,9.98112 7.3771741,9.949272 7.5008311,9.917186 7.5606461,9.898554 7.6220052,9.886107 7.6833489,9.873879 c 0,0 0,-0.975048 0,-0.975048 v 0 C 7.6229399,8.917448 7.562488,8.936067 7.5008311,8.950229 7.3785542,8.983702 7.2554166,9.017341 7.1288708,9.02982 7.0303808,9.03536 6.9312015,9.041761 6.8327163,9.03374 6.7793273,9.02519 6.7226405,9.015853 6.6785147,8.982147 Z" />
  <path
     style="fill:#c5c5c5;fill-opacity:1"
     id="path20"
     d="m 6.7477224,6.2592896 c 0.00523,-1.364e-4 0.010536,-0.00128 0.015696,-4.093e-4 0.05849,0.0099 0.1262614,0.071749 0.1702884,0.1078663 0.099373,0.088505 0.1829385,0.1925268 0.2769554,0.2864762 0.085245,0.078974 0.1629242,0.1654064 0.2400262,0.2521787 0,0 0,-0.9654009 0,-0.9654009 v 0 C 7.3669345,5.861824 7.2862674,5.780478 7.2106623,5.6943197 7.1182577,5.5941864 7.0194148,5.4998949 6.9337069,5.3937125 6.8707474,5.3177344 6.8026321,5.2450878 6.7477224,5.1630001 Z" />
</svg>
