<?xml version="1.0" encoding="UTF-8" standalone="no"?>
<svg
   width="16"
   height="16"
   viewBox="0 0 16 16"
   fill="none"
   version="1.1"
   id="svg2"
   sodipodi:docname="play.svg"
   inkscape:version="1.4.2 (f4327f4, 2025-05-13)"
   xmlns:inkscape="http://www.inkscape.org/namespaces/inkscape"
   xmlns:sodipodi="http://sodipodi.sourceforge.net/DTD/sodipodi-0.dtd"
   xmlns="http://www.w3.org/2000/svg"
   xmlns:svg="http://www.w3.org/2000/svg">
  <defs
     id="defs2" />
  <sodipodi:namedview
     id="namedview2"
     pagecolor="#ffffff"
     bordercolor="#000000"
     borderopacity="0.25"
     inkscape:showpageshadow="2"
     inkscape:pageopacity="0.0"
     inkscape:pagecheckerboard="0"
     inkscape:deskcolor="#d1d1d1"
     inkscape:zoom="51.928154"
     inkscape:cx="6.2682759"
     inkscape:cy="8.0977267"
     inkscape:window-width="2560"
     inkscape:window-height="1377"
     inkscape:window-x="1592"
     inkscape:window-y="-8"
     inkscape:window-maximized="1"
     inkscape:current-layer="svg2" />
  <path
     id="path1"
     d="m 8.9106558,-2.0745904 c -2.301884,-0.1438678 -4.603768,0.4304793 -6.4740487,1.72528908 -2.01414851,1.29480975 -3.30727242,3.16621442 -4.0266112,5.46809842 -0.719343,2.1580162 -0.5765992,4.6026297 0.2866116,6.7606609 0.86320654,2.158016 2.4451898,3.884429 4.4593383,5.035371 2.0141485,1.150942 4.3154706,1.440364 6.6173546,1.00876 2.3018846,-0.431603 4.3160326,-1.726975 5.7547106,-3.453388 1.438677,-1.870281 2.304131,-4.028859 2.304131,-6.3307431 0,-2.877355 -1.007074,-5.3225448 -2.877355,-7.33669332 C 13.372242,-0.77978067 11.212539,-1.9307155 8.9106558,-2.0745904 Z m -1.5004957,1.42743781 c 0.4072394,-0.0232273 0.8141697,-0.0195076 1.2138841,0.0112397 2.0141488,0.14386775 3.7399998,1.00595035 5.1786768,2.44462779 1.582545,1.5825451 2.444628,3.8855532 2.444628,6.1874372 0.143868,2.0141489 -0.574347,3.8855529 -1.725289,5.4680979 -1.29481,1.582545 -3.021785,2.589059 -4.8920654,3.020662 C 7.7597138,16.916515 5.7450034,16.629341 4.0185904,15.622266 2.2921774,14.615192 0.99849153,13.176515 0.13528504,11.306234 -0.72792146,9.4359391 -0.72679742,7.4218049 -0.15132657,5.5515242 0.42414443,3.5373759 1.5734006,1.9537066 3.1559458,0.80276458 3.1642614,0.79670774 3.172892,0.79191695 3.1812349,0.78590471 2.8350851,0.89872336 2.4886387,1.0085521 2.1499955,1.1427645 1.9138665,1.2363482 1.8895074,1.2510992 1.6582601,1.3563182 1.3405305,1.5071614 1.03301,1.6795651 0.75065689,1.8902025 0.57315775,2.0226179 0.53593543,2.0630558 0.37412794,2.2105329 0.17158589,2.4115034 -0.00446148,2.6338959 -0.15413645,2.8764832 -0.25597036,3.0415321 -0.42495325,2.9401351 -0.32273147,2.7753264 -0.16289426,2.5176256 0.02564515,2.2774195 0.24206195,2.0644173 0.41309467,1.9090574 0.4508729,1.8666827 0.63826021,1.7272272 0.93037015,1.5098362 1.2482881,1.3323147 1.5767724,1.1764835 1.8133294,1.0689773 1.8385783,1.055627 2.0797476,0.96011993 2.4313927,0.82086242 2.790942,0.70641721 3.1503259,0.58921088 3.390778,0.51108106 3.6307485,0.43221189 3.8696647,0.3475581 4.9568727,-0.25845387 6.188442,-0.57747068 7.4101601,-0.64715259 Z"
     style="stroke-width:1.43868" />
  <path
     d="M 5.5303256,2.9607808 13.083382,7.9666448 5.5303256,13.031523 Z M 6.7891685,10.6712 10.811567,7.9764853 6.7891685,5.3014372 Z"
     fill="#c5c5c5"
     id="path2"
     style="stroke-width:1.43868" />
  <path
     style="fill:#c5c5c5;fill-opacity:1;stroke-width:0.0195905"
     d="m 6.7942191,7.9863568 c 0,-1.4599821 0.00479,-2.654513 0.010646,-2.654513 0.02138,0 3.9662329,2.6299916 3.9662329,2.644245 0,0.014469 -3.9442898,2.6647812 -3.9658238,2.6647812 -0.00607,0 -0.011049,-1.194531 -0.011049,-2.6545132 z"
     id="path3" />
  <path
     style="fill:#c5c5c5;fill-opacity:1;stroke-width:1.43868"
     d="m 6.4122043,5.1849149 c 0.2189812,0.072994 0.2948538,0.096245 0.5485341,0.1959052 0.1803349,0.070846 0.3422507,0.1591894 0.5093531,0.2546764 0.038034,0.021734 0.082965,0.031877 0.117543,0.058772 0.025772,0.020045 0.035684,0.055274 0.058771,0.078362 0.016648,0.016648 0.042123,0.022533 0.058771,0.039181 0.01033,0.01033 0.00927,0.028855 0.019591,0.039181 0.00462,0.00462 0.014974,-0.00462 0.01959,0 0.00462,0.00462 0.0062,0.017526 0,0.01959 -0.053222,0.01774 -0.091947,-0.011236 -0.1175428,-0.058771 C 7.5380179,5.6469015 7.5013388,5.3768532 7.3133674,5.2828676 7.1766414,5.2145045 7.1028591,5.5069038 7.097872,5.5767251 7.082777,5.7880412 7.2279816,6.2589414 7.372139,6.4191167 c 0.034118,0.037909 0.078362,0.065302 0.1175428,0.097952 0.032651,0.039181 0.064069,0.079424 0.097952,0.1175428 0.016104,0.018117 0.2154954,0.1617826 0.2154954,0.1763146 0,0.014603 -0.013063,0.026121 -0.01959,0.039181"
     id="path4" />
  <path
     style="fill:#c5c5c5;fill-opacity:1;stroke-width:1.43868"
     d="m 6.9411479,7.8100423 c -0.00653,0.065302 -0.03762,0.1328029 -0.01959,0.195905 0.1260253,0.4410881 0.252844,0.6185571 0.6660771,0.8423916 0.4800068,0.2600036 0.3317132,0.1074159 0.6073056,0.1763145 0.031675,0.00791 -0.065302,0 -0.097952,0"
     id="path5" />
  <path
     style="fill:#c5c5c5;fill-opacity:1;stroke-width:1.43868"
     d="M 6.5493379,9.867045 C 6.8485243,9.8493134 7.3605622,9.6024086 7.568044,9.4948254 7.5944247,9.4811466 8.2535928,9.1027186 8.1753495,8.9071104 8.1649378,8.8810809 8.0880708,8.9069114 7.9990349,8.9854724 7.9228623,9.0526836 7.8604218,9.1345696 7.7835395,9.2009679 7.5459656,9.4061453 7.5923773,9.3179487 7.3329579,9.4948254 7.2223542,9.5702372 7.1142772,9.6563273 7.0391004,9.7690925 c -0.066188,0.099283 -0.00639,0.052379 0.019591,0.078362 0.023088,0.023088 0.00462,0.06563 0,0.097952 -0.03717,0.2601915 -0.1376613,0.5031185 -0.1763146,0.7640295 -0.074467,0.502658 0.039874,0.09657 -0.058771,0.293858 -0.00584,0.01165 0.011682,0.03333 0,0.03918 -0.011682,0.0059 -0.027499,-0.0059 -0.039181,0 -0.00584,0.0029 0.00584,0.01667 0,0.01959 -0.029822,0.01491 -0.1241521,0 -0.1567239,0"
     id="path6" />
  <path
     style="fill:#c5c5c5;fill-opacity:1;stroke-width:1.43868"
     d="M 9.7229992,8.7112054 C 9.3467872,9.0315421 8.9067087,9.2698246 8.4692071,9.4948254 8.3990384,9.5309122 8.3217218,9.5527719 8.2537115,9.5927779 8.1737144,9.639835 8.1106893,9.7111139 8.038216,9.7690925 7.9211534,9.8627426 7.7841001,9.9059858 7.646406,9.9649975 7.6074474,9.981694 7.5525552,10.009647 7.5484535,10.004179 7.4056832,9.8138181 7.5681604,9.5730011 7.6659965,9.4164634 7.7380148,9.3012341 7.8153951,9.1888863 7.9010824,9.0834249 8.1444606,8.7838826 8.189743,8.8173007 8.4104356,8.5153004 8.5371767,8.3418651 8.6073999,8.1372548 8.6455215,7.9275853 c 0.00584,-0.032124 0,-0.065302 0,-0.097952 0,-0.00653 0.00292,-0.025431 0,-0.01959 -0.027687,0.055373 0.00318,0.5379686 0,0.5681246 C 8.6075732,8.7386761 8.4855829,9.1126593 8.3712546,9.4556445 8.2261191,9.891051 8.0125883,10.2776 7.7835395,10.670256 c -0.064122,0.109923 -0.1114414,0.112966 -0.195905,0.176314 -0.014777,0.01108 -0.023343,0.02968 -0.039181,0.03918 -0.017707,0.01065 -0.041589,0.0082 -0.058771,0.01959 -0.00544,0.0036 0,0.01309 0,0.0196"
     id="path7" />
  <path
     style="fill:#c5c5c5;fill-opacity:1;stroke-width:1.43868"
     d="m 6.1771184,9.9649975 c 0.044636,0.026782 0.1684471,0.1044735 0.2154954,0.1175425 0.076545,0.02126 0.1566568,0.02653 0.2350861,0.03918 0.3319992,0.05355 0.4569582,0.07924 0.8032105,0.09795 0.09781,0.0053 0.1999409,0.02783 0.2938575,0 0.090299,-0.02675 0.1553884,-0.106544 0.2350861,-0.156724 0.096666,-0.06086 0.195187,-0.1187567 0.2938575,-0.1763144 0.072285,-0.042167 0.39181,-0.1922475 0.39181,-0.3134482"
     id="path8" />
  <path
     style="fill:#c5c5c5;fill-opacity:1;stroke-width:1.43868"
     d="M 7.8619015,9.4948254 C 7.603611,9.9652937 7.2613836,10.389201 6.8823763,10.768208"
     id="path9" />
  <path
     style="fill:#c5c5c5;fill-opacity:1;stroke-width:1.43868"
     d="m 6.5885188,10.591894 c 0.1110128,-0.01959 0.2233451,-0.03279 0.3330386,-0.05877 0.1387816,-0.03287 0.2726579,-0.08451 0.4114005,-0.117543 0.2977596,-0.07089 0.6010239,-0.116287 0.9011631,-0.176315"
     id="path10" />
  <path
     style="fill:#c5c5c5;fill-opacity:1;stroke-width:1.43868"
     d="m 7.881492,9.710321 c -0.2555656,0.335173 -0.6056637,0.602839 -0.9207536,0.881573 -0.1154553,0.102133 -0.1694549,0.09795 -0.097952,0.09795"
     id="path11" />
  <path
     style="fill:#c5c5c5;fill-opacity:1;stroke-width:1.43868"
     id="path14"
     d="m 6.654558,8.3743251 c 0.048912,0.010718 0.090581,0.05025 0.1331582,0.076293 0.056589,0.038326 0.1154769,0.072984 0.1718518,0.1116126 0.029045,0.014613 0.098417,0.080544 0.1320677,0.069669 0.00804,-0.0026 0.013178,-0.010603 0.019762,-0.015902 0.00419,-0.013898 0.00997,-0.027411 0.01256,-0.041692 0.00335,-0.018527 0.00516,-0.037417 0.00521,-0.056246 0.00114,-0.5627453 0.1153602,-1.1702991 -0.042714,-1.7266 C 7.0332963,6.6075535 6.974719,6.4253237 6.9141128,6.2437604 6.8833228,6.1437503 6.8470332,6.0448907 6.8256179,5.9422017 c -0.00708,-0.03396 -0.013006,-0.068224 -0.016805,-0.1027058 -0.00387,-0.035089 -0.00617,-0.1410306 -0.00617,-0.1057284 -1.191e-4,0.412157 0.0039,0.8243047 0.00586,1.2364569 0.070653,-0.580794 0.021948,-1.1193385 0.012027,-1.738104 -5.982e-4,-0.037296 -0.018427,-0.053769 -0.038264,-0.079511 -0.0082,-0.00335 -0.015766,-0.00932 -0.024593,-0.010056 -0.066552,-0.0055 -0.08314,0.1358774 -0.09046,0.1776534 -0.0476,0.5664515 -0.010531,0.1053083 -0.00493,1.5926045 2.875e-4,0.076335 0.023591,0.1710759 0.040479,0.2458173 0.014013,0.047112 0.035581,0.1339006 0.1035992,0.1243205 0.027267,-0.00384 0.047,-0.023492 0.067526,-0.0391 0.038042,-0.024741 0.06371,-0.073234 0.097944,-0.1007607 0.0025,-0.00201 0.00939,9.165e-4 0.00937,-0.0023 C 6.9780487,6.6271586 6.9686541,6.1135892 6.9623815,5.5999909 6.913583,5.705236 6.8385559,5.7990642 6.8037772,5.9108366 c -0.00747,0.024006 -0.011394,0.048971 -0.0171,0.073457 -0.031924,0.5689428 -0.018408,0.298488 0.00207,1.58505 4.297e-4,0.026995 0.010948,0.052936 0.018504,0.078855 0.025046,0.08588 0.062879,0.1678272 0.099309,0.2492387 0.03008,0.049001 0.062325,0.1479595 0.1356126,0.1524194 0.065632,0.004 0.1135965,-0.077553 0.1463031,-0.1198894 C 7.4848488,7.503601 7.8832578,6.1400373 7.2709909,6.199759 7.1783059,6.3331401 7.0617959,6.4470263 6.9547508,6.5684396 6.5142672,7.0723138 6.8460675,6.8292277 6.8522245,8.2796841 c 0.00342,5.05e-4 0.00683,0.00201 0.010258,0.00151 0.0068,-0.00101 0.012114,-0.00797 0.018985,-0.00807 0.00197,-3.01e-5 0.00329,0.00216 0.00495,0.00325 -3.91e-5,-0.5248436 0.00338,-1.0496989 -1.177e-4,-1.5745309 -1.558e-4,-0.023394 -0.0066,0.046321 -0.00991,0.069482 -0.040569,0.2004415 -0.098536,0.3965947 -0.1354025,0.5978331 -0.00309,0.030339 -0.00755,0.060571 -0.00928,0.091018 -0.00165,0.028939 -9.76e-4,0.057969 -8.546e-4,0.086955 0.00207,0.4949384 -2.411e-4,0.9899265 0.00744,1.4848097 5.91e-4,0.038105 0.027211,0.1258123 0.042743,0.1615547 0.00939,0.021619 0.022697,0.041322 0.034045,0.061982 0.041661,0.074255 0.14358,0.099316 0.1742034,0.1809052 0.0045,0.011984 0.00419,0.025243 0.00629,0.037865 -0.00186,-0.4875018 8.133e-4,-0.9750418 -0.00555,-1.4625055 -2.368e-4,-0.018111 -0.00806,0.03533 -0.012862,0.052794 -0.011049,0.040158 -0.029358,0.079356 -0.029041,0.1217884 0.00386,0.5177118 0.00931,1.0354107 0.013969,1.5531159 0.010661,0.00247 0.021221,0.00951 0.031963,0.00744 0.031647,-0.00609 0.086572,-0.050187 0.1070002,-0.066189 0.030648,-0.02401 0.1024497,-0.083144 0.1246974,-0.1147921 0.01825,-0.025962 0.028215,-0.056852 0.042323,-0.085279 0.0066,-0.032134 0.01624,-0.063792 0.019801,-0.096404 0.0035,-0.031987 0.00154,-0.064346 0.00126,-0.096524 C 7.284984,8.7947055 7.2880516,8.3015719 7.2746083,7.8087509 7.2735925,7.7715108 7.2248747,7.6685662 7.2067027,7.637179 7.1924167,7.6124999 7.1743512,7.5902105 7.1581747,7.566727 7.1124032,7.5154511 7.0009494,7.3998083 6.9204127,7.4176014 c -0.00948,0.0021 -0.01693,0.00952 -0.025394,0.014301 -0.040184,0.060486 -0.035151,0.1399243 -0.037626,0.2096731 -0.00528,0.1486708 3.6e-5,0.035203 -0.00811,0.1896169 -0.039601,0.571446 -0.020467,0.2658158 -0.00505,1.5795411 3.155e-4,0.026902 0.00732,0.053873 0.017419,0.078808 0.027119,0.066936 0.078174,0.072745 0.1407833,0.082325 0.047704,0.011322 0.1055773,0.0055 0.1501534,0.029726 0.032805,0.017829 0.029358,0.02672 0.038034,0.0575 -0.006,-0.4935936 -0.012013,-0.987187 -0.018017,-1.4807804 -0.076192,0.1848583 -0.2290774,0.3134999 -0.3768767,0.4403505 -0.040517,0.03454 -0.059006,0.052566 -0.1015087,0.081196 -0.015297,0.010301 -0.040335,0.032726 -0.052129,0.018548 -0.00483,-0.00581 -0.0017,-0.030149 -0.00165,-0.022596 0.00281,0.5234221 0.00663,1.0468383 0.00996,1.5702574 0.00538,-0.01486 0.010632,-0.02976 0.016156,-0.04457 0.014329,-0.03839 0.021648,-0.05447 0.03484,-0.09336 0.013509,-0.03981 0.022773,-0.08014 0.039902,-0.118563 0.00365,-0.0024 0.00666,-0.008 0.010963,-0.0072 0.00465,8.17e-4 0.00603,0.0073 0.00924,0.01075 0.023891,0.02597 0.021877,0.04912 0.026103,0.08434 0.00869,0.133947 0.016254,0.267972 0.026752,0.401803 0.086446,0.808549 0.5391608,-1.2602716 -0.00125,-1.4358357 -0.050816,-0.019064 -0.09074,-0.055946 -0.1310462,-0.090819 -0.027595,-0.023875 -0.014229,-0.00829 -0.031944,-0.032264 -0.013826,2.7882787 -0.5018225,1.5217627 0.1004067,1.5823267 0.075197,0.0076 0.1477948,0.02608 0.2207039,0.04505 0.078611,0.02554 0.1581941,0.04951 0.2344399,0.08175 0.039243,0.01659 0.088395,0.03842 0.1202619,0.06866 0.013624,0.01293 0.022367,0.03019 0.033551,0.04528 0.1203338,0.5215 0.052467,0.241633 -0.00423,-1.4451262 -7.352e-4,-0.021874 -0.021032,0.038525 -0.033885,0.056241 -0.040037,0.055185 -0.092375,0.096754 -0.1452378,0.1386224 -0.044078,0.031461 -0.08639,0.067337 -0.1354558,0.091214 -0.0095,0.00462 -0.019434,0.00873 -0.029794,0.01079 -0.00455,9.019e-4 -0.013711,-0.00679 -0.013725,-0.00216 -0.00252,0.5260948 0.00411,1.0521938 0.00617,1.5782908 0.139592,-0.08962 0.2860331,-0.106995 0.4478633,-0.1139 0.062936,0.004 0.1589881,-0.0095 0.2153162,0.0298 0.011639,0.0082 0.024429,0.04902 0.02456,0.03482 C 7.7058631,9.5309615 8.0209984,9.1924211 7.6358731,9.634028 7.6124281,9.648537 7.5903911,9.665611 7.5655401,9.677554 7.4694551,9.723733 7.3322396,9.746035 7.226998,9.723983 7.203989,9.719163 7.182551,9.708654 7.160328,9.70099 7.122685,9.67225 7.100852,9.664852 7.084104,9.61908 7.079284,9.605916 7.079684,9.563215 7.079864,9.577233 c 0.00583,0.485936 -0.00135,0.972312 0.021232,1.457759 0.0012,0.02585 0.027046,-0.04435 0.043593,-0.06427 0.017678,-0.02126 0.039087,-0.03912 0.058631,-0.05868 0.020167,-0.01381 0.03911,-0.02955 0.060502,-0.04135 0.044149,-0.02434 0.042314,-0.02026 0.082711,-0.01931 -0.00888,-0.512077 0.00282,-1.0249249 -0.026627,-1.5362316 -0.00137,-0.023727 -0.038034,0.02915 -0.05961,0.039118 -0.02303,0.010646 -0.048558,0.014718 -0.072836,0.022076 -0.070966,0.01138 -0.1437412,0.022963 -0.2159811,0.018995 -0.030651,-0.00168 -0.069559,-0.00387 -0.091612,-0.030792 -0.00718,-0.00876 -0.00646,-0.021705 -0.0097,-0.032559 0.00583,0.5240547 -0.0012,1.0484086 0.01746,1.5721636 5.482e-4,0.01539 0.023619,-0.02037 0.037587,-0.02686 0.04111,-0.01908 0.1004873,-0.02318 0.1406509,4.62e-4 0.012401,0.0073 0.020967,0.0197 0.031451,0.02955 0.20938,0.487492 0.029601,0.0815 0.012934,-1.4461187 -1.822e-4,-0.016719 -0.00817,0.032467 -0.013624,0.048273 -0.012243,0.035517 -0.028926,0.068054 -0.051051,0.098204 -0.3875072,0.3508636 -0.049916,0.043664 0.023104,1.5580297 9.569e-4,0.01985 0.030135,-0.02608 0.046735,-0.037 0.050201,-0.03302 0.1066779,-0.05089 0.1632031,-0.06924 0.5491002,-0.120921 0.072916,-0.548171 0.026651,-1.5763963 -7.448e-4,-0.016555 -0.032983,0.00383 -0.049554,0.00399 -0.072036,6.835e-4 -0.070649,-0.00334 -0.1434707,-0.01868 -0.093446,-0.02931 -0.2525863,-0.069835 -0.283982,-0.1797676 -0.00471,-0.016475 -8.684e-4,-0.034257 -0.0013,-0.051386 -0.00735,2.2034019 -0.1777772,1.6522649 0.1394847,1.1671679 0.082571,-0.126252 0.1815951,-0.238514 0.280995,-0.351413 0.1808283,-0.1958379 0.377615,-0.3780466 0.597126,-0.5300316 0.044839,-0.031045 0.091373,-0.059567 0.1370599,-0.08935 0.1796979,-0.1081943 0.369685,-0.1987907 0.5690856,-0.2643168 0.1095654,-0.036004 0.1522817,-0.044264 0.2625034,-0.071206 0.1651474,-0.033907 0.3345459,-0.075356 0.504672,-0.066431 0.024388,0.00128 0.048528,0.00555 0.072791,0.00833 0.052881,0.012632 0.1075728,0.032044 0.1313872,0.086082 0.00482,0.01092 0.00606,0.047235 0.00597,0.035301 C 9.517937,7.6426251 9.7840663,7.2597592 9.4753205,7.730502 9.3422114,7.8773553 9.1711704,7.9864472 9.0080003,8.0969539 8.9077875,8.1589732 8.8026825,8.2159513 8.6915211,8.2561683 c -0.038345,0.013869 -0.1030137,0.034275 -0.1476688,0.029903 -0.011898,-0.00116 -0.021871,-0.00965 -0.032805,-0.014482 -0.02805,-0.5579551 -5.483e-4,1.0267878 0.027256,1.5391715 0.00121,0.022376 0.035191,-0.027895 0.054163,-0.03982 0.024003,-0.015089 0.049142,-0.028353 0.07449,-0.041053 C 8.7415655,9.6925088 8.77861,9.6800254 8.8574289,9.6489327 9.0945887,9.5664044 9.3336632,9.4902265 9.5685942,9.4013735 9.8225354,9.2938842 10.088905,9.2238869 10.35817,9.1678893 c 0.08025,-0.014488 0.16362,-0.032337 0.245903,-0.023858 0.03394,0.0035 0.03124,0.00432 0.05058,0.019644 -0.0031,-0.526235 -0.0061,-1.05247 -0.0092,-1.5787049 -0.08463,0.028821 -0.174121,0.011956 -0.260798,0.00374 -0.101837,-0.012704 -0.203954,-0.00974 -0.305984,-0.0024 -0.1489835,0.014272 -0.298039,0.02157 -0.4473366,0.00974 -0.037482,-0.013682 -0.074046,-0.017532 -0.09472,-0.056694 -0.00613,-0.01161 -0.00433,-0.052296 -0.00414,-0.039168 0.00747,0.5174107 -0.00135,1.035434 0.025974,1.5521768 0.00124,0.023479 0.034203,-0.03259 0.053686,-0.045751 0.02364,-0.015969 0.050013,-0.02746 0.07502,-0.041189 0.1723579,-0.068849 0.3589016,-0.088096 0.5406116,-0.1192276 0.124684,-0.024295 0.251141,-0.035873 0.377854,-0.041976 0,0 0,-1.4572545 0,-1.4572545 v 0 c -0.12499,0.037511 -0.248959,0.079188 -0.377854,0.1019217 -0.178721,0.036583 -0.3571441,0.087333 -0.5406116,0.089038 -0.025007,-0.00301 -0.050375,-0.00383 -0.07502,-0.00902 -0.01848,-0.0039 -0.05272,-0.036974 -0.053686,-0.018113 -0.026831,0.5243626 -0.018593,1.0499349 -0.025974,1.5749316 -1.03e-4,0.00732 -7.146e-4,-0.016103 0.00414,-0.021597 0.023599,-0.026721 0.063733,-0.029818 0.09472,-0.037525 0.1498971,-0.00727 0.2990875,0.00446 0.4473366,0.02771 0.101571,0.014372 0.203359,0.026414 0.305984,0.029948 0.09107,0.006 0.192731,0.00322 0.260798,0.073562 0.0031,-0.5182631 0.0061,-1.0365263 0.0092,-1.5547893 -0.0044,0.013754 -0.006,0.028689 -0.01315,0.041248 -0.01001,0.017678 -0.02294,0.033855 -0.03742,0.048099 -0.06896,0.067811 -0.160568,0.1076576 -0.245903,0.1492964 C 10.103626,7.9561217 9.8417981,8.0528014 9.5685986,8.1129731 9.332767,8.1753916 9.0985091,8.2459903 8.8574332,8.2859876 c -0.08631,0.01033 -0.1785339,0.027195 -0.2649616,0.00588 -0.018982,-0.00468 -0.053116,-0.042022 -0.054163,-0.022501 -0.027093,0.5049099 -0.042014,2.1128864 -0.027256,1.5166638 0.010934,-0.019926 0.018852,-0.041835 0.032805,-0.059778 0.035902,-0.046173 0.1010786,-0.095505 0.1476687,-0.1271575 0.099267,-0.067441 0.2068886,-0.1231293 0.3164793,-0.1714995 0.1585105,-0.066257 0.3150245,-0.1364557 0.4673202,-0.2161336 0.4834398,-0.2884673 0.043168,-0.011452 0.05271,-1.5819854 5.9e-5,-0.00971 2.085e-4,-0.021036 -0.00597,-0.028533 -0.02164,-0.026235 -0.108195,8.844e-4 -0.1313879,0.00259 C 9.1917171,7.651904 9.0012236,7.7257287 8.8132045,7.8063119 8.5301391,7.92724 8.245614,8.0488022 7.9816156,8.2082587 7.8735739,8.2753335 7.8154324,8.3079857 7.7139895,8.3846076 7.5483427,8.509724 7.4013421,8.6574737 7.2474295,8.7961307 7.1533715,8.8836283 7.0579018,8.969914 6.9664345,9.0601503 c -0.022613,0.02231 -0.04542,0.044477 -0.066739,0.068026 -0.016866,0.018631 -0.046538,0.033284 -0.047694,0.058387 -0.023331,0.5069865 -0.016702,1.0149087 -0.025052,1.5223627 4.342e-4,0.02151 -0.00468,0.04386 0.0013,0.06453 0.015759,0.05452 0.094357,0.06515 0.1380397,0.07677 0.110066,0.02929 0.032249,0.0067 0.145907,0.04139 0.062885,0.02552 0.089761,0.03106 0.1434707,0.07439 0.018496,0.01492 0.048417,0.075 0.049554,0.05126 0.024191,-0.504989 0.013768,-1.011045 0.020642,-1.516567 -0.00381,0.014344 -0.00397,0.030189 -0.011423,0.043014 -0.00879,0.015128 -0.023911,0.025554 -0.035865,0.038332 C 7.2286049,9.608501 7.1746362,9.638572 7.1153717,9.633741 7.0991577,9.632421 7.0694087,9.603445 7.0686367,9.6197 c -0.1235953,2.598637 -0.072555,2.044555 -0.023104,1.517212 0.019291,-0.05599 0.00827,-0.02794 0.032987,-0.08339 0.00197,-0.0045 0.031605,-0.06871 0.031685,-0.07698 0.015125,-1.5451587 0.2395206,-1.0979366 -0.012934,-1.5888103 -0.010488,-0.00399 -0.020487,-0.0096 -0.031451,-0.011955 -0.00663,-0.00143 -0.090097,-0.00809 -0.093743,-0.0086 -0.015785,-0.00223 -0.031854,-0.00409 -0.046908,-0.00932 -0.013423,-0.00468 -0.025057,-0.013408 -0.037587,-0.020115 -0.00583,0.5264355 -0.011639,1.0528713 -0.01746,1.5793063 0.00324,-0.0095 0.00322,-0.02079 0.0097,-0.02843 0.020595,-0.02427 0.064312,-0.03688 0.091612,-0.04453 0.070156,-0.01968 0.1432865,-0.02951 0.215981,-0.03169 0.024279,0.0032 0.049683,0.0017 0.072836,0.0097 0.021946,0.0076 0.058264,0.0592 0.05961,0.03602 0.029398,-0.506052 0.017752,-1.0136557 0.026627,-1.5204835 -0.010617,0.016551 -0.019221,0.034577 -0.031842,0.049653 -0.035874,0.04285 -0.06626,0.060166 -0.1113709,0.092484 -0.5319344,0.30737 -0.109938,0.3495512 -0.1234558,1.6112875 -6.605e-4,0.06165 0.027512,0.05733 0.08047,0.0597 0.084135,-0.0062 0.055347,-0.0029 0.1457634,-0.01493 0.1101106,-0.01469 0.2210581,-0.03918 0.3297817,-0.0019 0.4841928,0.311606 0.069823,0.0627 0.055189,-1.5424435 -1.299e-4,-0.014257 -0.013466,0.026047 -0.02456,0.035004 -0.059079,0.047724 -0.1451903,0.048468 -0.2153162,0.062234 -0.1507891,0.017519 -0.3276237,0.035748 -0.4478633,-0.076929 -0.00206,0.5190265 -0.00411,1.0380535 -0.00617,1.5570805 0.015938,-0.04326 0.010143,-0.03856 0.043524,-0.07687 0.040058,-0.04597 0.089061,-0.08331 0.1354558,-0.122374 0.047473,-0.03873 0.094701,-0.07559 0.1452378,-0.110188 0.011366,-0.0078 0.033467,-0.0099 0.033885,-0.02365 0.045839,-1.5084614 0.259291,-1.1025338 0.00422,-1.5790071 C 7.2309421,9.2220861 7.0959961,9.2101432 6.9711788,9.1606444 6.8928128,9.1285065 6.8185813,9.0954039 6.7504749,9.0439873 6.2948935,8.700049 6.6713396,7.6320749 6.6500679,10.522307 c 0.052077,-0.05064 0.1315656,0.03378 0.1629911,0.07073 0.3002864,0.477563 0.030772,0.06424 0.035774,-1.5189851 7.5e-6,-0.00239 -0.0059,0.014931 -0.016889,0.00696 C 6.819212,9.0717919 6.817013,9.0461179 6.814303,9.0351629 6.799899,8.8967434 6.794167,8.7576933 6.787551,8.6187347 6.783641,8.5622377 6.783261,8.5010207 6.769432,8.4456337 c -0.00137,-0.0055 -0.00282,-0.017319 -0.00798,-0.015 -0.019516,0.00876 0.00161,0.05736 -0.020195,0.060918 C 6.727,8.5468557 6.707914,8.644949 6.666515,8.6864901 c -0.00432,0.00433 -0.010776,0.00578 -0.016156,0.00868 -0.00332,0.5317021 -0.00663,1.0634042 -0.00996,1.5951059 0.00199,-0.04093 -0.00155,-0.03922 0.019926,-0.0827 0.03398,-0.06876 0.086125,-0.126973 0.1353666,-0.184774 0.1128153,-0.1271872 0.2266764,-0.2604405 0.3768766,-0.3446012 0.006,-0.5218298 0.014967,-1.043634 0.018017,-1.5654893 4e-5,-0.00685 -0.00245,-0.01592 -0.00876,-0.018573 -0.00903,-0.0038 -0.019523,0.00168 -0.029279,0.00259 -0.050008,0.0046 -0.100037,0.00873 -0.1501534,0.00158 -0.047206,-0.012574 -0.1093367,-0.025269 -0.1407833,-0.068169 -0.00909,-0.012401 -0.017201,-0.058055 -0.01742,-0.042688 -0.024086,1.689332 -0.030955,1.758015 0.00505,1.249426 0.011481,-0.1638669 -2.68e-5,0.00764 0.00811,-0.1333611 0.00285,-0.049311 0.0058,-0.097797 0.037626,-0.1381188 0.00846,-0.00797 0.015919,-0.017181 0.025394,-0.023922 0.080559,-0.057305 0.1723751,-0.011222 0.237762,0.045878 0.04577,0.052676 0.058754,0.060042 0.088162,0.1262943 0.011797,0.02658 0.027244,0.1115982 0.028271,0.082535 0.015227,-0.4310144 0.00975,-0.8625113 0.014519,-1.2937681 3.411e-4,-0.030904 0.00237,0.062017 -0.00126,0.09271 -0.00342,0.029002 -0.013207,0.056898 -0.0198,0.085347 -0.014113,0.023252 -0.024196,0.049482 -0.042323,0.069757 -0.017037,0.019055 -0.039236,0.033157 -0.06127,0.046112 -0.064887,0.038152 -0.1368326,0.044678 -0.2023908,0.00643 -0.00466,0.4996803 -0.0099,0.9993554 -0.01397,1.4990409 -1.331e-4,0.016376 -1.037e-4,-0.032867 0.00217,-0.049083 0.00465,-0.033071 0.016968,-0.064738 0.026864,-0.09635 0.00445,-0.014185 0.012689,-0.027825 0.012862,-0.042684 0.00597,-0.5173461 0.00371,-1.0347546 0.00555,-1.5521318 -0.0021,-0.014113 -0.0011,-0.02906 -0.00629,-0.042359 -0.015005,-0.038476 -0.060791,-0.051336 -0.09291,-0.069041 -0.043655,-0.024062 -0.041838,-0.025518 -0.081294,-0.057357 -0.034209,-0.041392 -0.04134,-0.042924 -0.059863,-0.096891 -0.00767,-0.02235 -0.016463,-0.092461 -0.016925,-0.068836 -0.00857,0.4375249 -0.00506,0.8752032 -0.00744,1.3128057 -1.729e-4,0.031986 -8.102e-4,-0.064013 8.546e-4,-0.095956 0.00171,-0.032976 0.00619,-0.065752 0.00928,-0.098627 0.026876,-0.154402 0.056692,-0.3208321 0.1354025,-0.4582834 0.4529599,-0.303397 0.014876,-0.00598 0.010028,-1.6065305 -2.53e-5,-0.00836 -5.605e-4,0.00817 -0.013135,0.014329 -0.00547,0.00268 -0.01521,0.00226 -0.021044,0.00237 -0.00224,0.5213356 -0.00473,1.0426701 -0.00672,1.5640067 -4.43e-5,0.011697 -7.799e-4,-0.023517 9.186e-4,-0.035096 0.012445,-0.084823 0.062903,-0.1579408 0.1083209,-0.2281112 0.058987,-0.0826 0.1640083,-0.234301 0.2737346,-0.2490534 0.0142,-0.00191 0.028338,0.0043 0.042506,0.00645 0.521865,-0.052519 0.037043,0.00374 0.023297,-1.5092072 -1.812e-4,-0.019939 -0.00804,0.039139 -0.014171,0.058115 -0.0205,0.063509 -0.053005,0.1229998 -0.091647,0.1771005 -0.014984,0.014431 -0.028132,0.03105 -0.04495,0.043294 -0.052592,0.03829 -0.1406494,0.057323 -0.1961087,0.012862 -0.016374,-0.013121 -0.027239,-0.031931 -0.040857,-0.047898 -0.040948,-0.078793 -0.077051,-0.1569769 -0.099309,-0.243504 -0.00781,-0.030362 -0.017871,-0.1235565 -0.018504,-0.092212 -0.036924,1.8293771 -0.033902,1.7607232 -0.00207,1.2686473 0.0057,-0.022246 0.00983,-0.044954 0.0171,-0.066737 0.0218,-0.065323 0.068159,-0.1576209 0.1289472,-0.1957801 0.00882,-0.00554 0.019772,-0.00653 0.029657,-0.0098 0.00627,-0.5242386 0.015595,-1.0484493 0.018804,-1.5727155 6.63e-5,-0.010848 -0.00504,0.02121 -0.00937,0.031149 -0.020662,0.04736 -0.057874,0.088333 -0.097944,0.1197181 -0.011121,0.00558 -0.021642,0.012545 -0.03335,0.016753 -0.039269,0.014113 -0.093232,0.010804 -0.1202792,-0.025787 -0.00784,-0.010603 -0.011668,-0.023639 -0.017497,-0.035458 -0.015682,-0.056346 -0.027807,-0.1123276 -0.034586,-0.1705572 -0.00262,-0.02244 -0.0058,-0.09011 -0.0059,-0.067519 -0.00666,1.4943647 -0.047161,1.8789143 0.00493,1.3628214 0.015728,-0.066421 0.034432,-0.1249923 0.115054,-0.1156222 0.028834,0.011912 0.016159,0.00363 0.038264,0.024463 0.00291,-0.4700835 0.00583,-0.9401671 0.00873,-1.4102506 1.94e-4,-0.031933 6.564e-4,0.063894 -7.577e-4,0.095796 -0.00308,0.0695 -0.012819,0.1529296 -0.020002,0.221988 -0.00196,0.4864723 -0.00596,0.9729405 -0.00586,1.4594165 1.57e-5,0.075157 0.00824,0.1463933 0.022983,0.2199627 0.020428,0.1019576 0.057136,0.1989892 0.088495,0.2977998 0.06463,0.1991034 0.1271791,0.3992733 0.1723382,0.60385 0.013826,0.065958 0.023797,0.1074246 0.032959,0.1731854 0.00338,0.024273 0.00765,0.097611 0.00783,0.073105 0.00342,-0.4796138 0.00128,-0.9592512 0.00191,-1.4388766 -0.0065,0.039074 3.503e-4,0.022253 -0.017755,0.051521 -0.064294,0.040995 -0.094418,0.0036 -0.1518289,-0.029953 C 6.9016093,6.9980333 6.8449484,6.9590307 6.7876672,6.9210453 6.7388183,6.8824197 6.6851916,6.8459622 6.654509,6.7901171 Z" />
  <path
     style="fill:#c5c5c5;fill-opacity:1;stroke-width:1.43868"
     id="path15"
     d="m 10.301831,6.8196263 c -0.04754,0.014964 -0.100792,0.0027 -0.147668,-0.00953 C 10.065594,6.7853045 9.9795394,6.7515434 9.895209,6.7149949 9.8014671,6.6695202 9.7069944,6.6255519 9.6135103,6.5795456 9.5087365,6.5238835 9.3950262,6.4916043 9.2857241,6.4466479 9.1484329,6.3838144 9.0091011,6.3254162 8.8739533,6.2580297 8.7421888,6.181613 8.6037645,6.1177844 8.472387,6.0408174 8.3429626,5.9631717 8.2189041,5.8770779 8.0926367,5.7945035 7.9646621,5.7068733 7.8399808,5.6143957 7.7167785,5.5201868 7.5929653,5.4219232 7.4702213,5.3221976 7.3498501,5.2197361 7.273879,5.1523512 7.2030365,5.0795007 7.1308113,5.0081889 c 0,0 0,1.4506781 0,1.4506781 v 0 c 0.074394,0.057749 0.1478896,0.1166466 0.2190388,0.1783835 0.1182104,0.1052163 0.2367013,0.2101413 0.3669284,0.3006107 0.1242715,0.097246 0.2453351,0.1986523 0.3758582,0.2876712 0.1208921,0.088489 0.2493415,0.1643867 0.3797503,0.2379495 0.1305643,0.078688 0.2600509,0.1594414 0.4015663,0.2175832 0.1378756,0.067191 0.2729536,0.1398798 0.4117708,0.2051539 0.039405,0.020941 0.088338,0.046141 0.1265043,0.069562 0.019428,0.011927 0.037417,0.026118 0.057031,0.037734 0.046195,0.027361 0.097243,0.046048 0.1442512,0.071866 0.093419,0.045589 0.187145,0.090479 0.2816987,0.1336935 0.087228,0.04275 0.1728927,0.088668 0.2589537,0.1337006 0.04936,0.024442 0.09861,0.049486 0.147668,0.074257 z" />
  <path
     style="fill:#c5c5c5;fill-opacity:1;stroke-width:1.43868"
     id="path16"
     d="M 8.1289008,5.5803655 C 8.0719999,5.5572086 8.0269805,5.5127825 7.9796548,5.474535 7.9063596,5.4082078 7.8337882,5.3411933 7.7592685,5.2762061 7.6761051,5.200536 7.5876183,5.1311123 7.4962022,5.0657665 7.3930653,4.9953664 7.2818787,4.9381794 7.1684922,4.886402 7.0661477,4.8433418 6.964616,4.7984518 6.8632701,4.7531065 c 0,0 0,1.4631527 0,1.4631527 v 0 c 0.1044969,0.033003 0.2077056,0.069924 0.3052221,0.1205411 0.1145058,0.058294 0.2250727,0.1235119 0.32771,0.2011749 0.092304,0.06713 0.1800282,0.1397804 0.2630663,0.218161 0.074649,0.072449 0.1489129,0.1454549 0.2203863,0.221037 0.054254,0.057694 0.1154927,0.1112903 0.149246,0.1845673 z" />
  <path
     style="fill:#c5c5c5;fill-opacity:1;stroke-width:1.43868"
     id="path17"
     d="m 9.4959884,8.5431276 c 0.064297,-0.05734 0.151834,-0.078294 0.2345969,-0.091999 0.121902,-0.015484 0.2448708,-0.018714 0.3675937,-0.016319 0.107326,-0.00121 0.214335,0.00798 0.320451,0.023276 0.09013,0.015034 0.176527,0.04432 0.262422,0.074503 0.08711,0.030252 0.169075,0.071994 0.250256,0.1152265 0.07055,0.038181 0.143091,0.072574 0.215238,0.1076304 0.0408,0.019275 0.08205,0.037495 0.122388,0.05772 0,0 0,-1.535245 0,-1.535245 v 0 c -0.0408,-0.014898 -0.08154,-0.02995 -0.122388,-0.044704 -0.07287,-0.027723 -0.143854,-0.059675 -0.215238,-0.090963 -0.08366,-0.036852 -0.166517,-0.075423 -0.250256,-0.1120112 -0.08468,-0.032154 -0.171566,-0.058836 -0.262422,-0.065851 -0.106908,-0.00791 -0.213498,-0.00143 -0.320451,0.00322 -0.1224318,0.00676 -0.2450683,0.00791 -0.3675937,0.012329 -0.046596,-2.351e-4 -0.066015,9.966e-4 -0.1117478,-0.00427 -0.015295,-0.00176 -0.030297,-0.0056 -0.045582,-0.00745 -0.026138,-0.00317 -0.053195,-5.82e-4 -0.077267,-0.013653 z" />
  <path
     style="fill:#c5c5c5;fill-opacity:1;stroke-width:1.43868"
     id="path18"
     d="m 11.183405,7.0946577 c -0.05271,0.028636 -0.114059,0.035573 -0.172404,0.045655 -0.0953,0.011236 -0.191328,0.00729 -0.286797,0.015155 -0.141032,0.018675 -0.282703,0.00276 -0.423935,-0.00285 -0.145314,-0.004 -0.287806,-0.034881 -0.4329072,-0.039981 -0.1819349,0.00754 -0.3640005,0.016519 -0.5455879,0.030628 -0.038739,0.00358 -0.077608,0.00597 -0.1162193,0.010747 -0.043916,0.00542 -0.087316,0.014614 -0.1312606,0.019795 -0.1829799,0.021572 -0.3666357,0.020985 -0.5505026,0.020108 0,0 0,1.2989483 0,1.2989483 v 0 c 0.043662,-0.00555 0.087178,-0.012445 0.1309887,-0.016674 0.1389201,-0.013423 0.2803591,-0.014853 0.4195138,-0.00354 0.043921,0.00357 0.087438,0.011078 0.1312606,0.015715 0.03868,0.00409 0.07748,0.00695 0.1162192,0.01043 0.1823902,0.015533 0.3648289,0.02863 0.545588,0.058848 0.1440423,0.013466 0.2890883,0.00577 0.4329073,0.023591 0.1418,0.014431 0.284262,0.02437 0.423935,0.054621 0.0953,0.014113 0.19071,0.011797 0.286797,0.014869 0.05776,0.00663 0.118173,0.00898 0.172404,0.031425 z" />
  <path
     style="fill:#c5c5c5;fill-opacity:1;stroke-width:1.43868"
     id="path19"
     d="m 6.1468201,10.995869 c 0.072586,-0.01912 0.1474134,-0.03054 0.2218464,-0.04025 0.1448526,-0.0063 0.2859006,-0.03293 0.4260708,-0.06842 0.1792133,-0.04085 0.3572284,-0.08667 0.5351309,-0.132828 0.086055,-0.02681 0.1743304,-0.04471 0.2625842,-0.0623 0,0 0,-1.40278 0,-1.40278 v 0 C 7.5055434,9.316075 7.4185726,9.342862 7.3298682,9.363236 7.1539512,9.411393 6.9767959,9.459789 6.7947373,9.4777418 6.6530419,9.4857118 6.5103549,9.4949208 6.3686665,9.4833818 6.2918565,9.4710808 6.2103029,9.4576478 6.1468201,9.4091558 Z" />
  <path
     style="fill:#c5c5c5;fill-opacity:1;stroke-width:1.43868"
     id="path20"
     d="m 6.2463877,5.4918312 c 0.00752,-1.963e-4 0.015158,-0.00184 0.022581,-5.889e-4 0.084148,0.014243 0.1816495,0.1032237 0.2449901,0.1551848 0.1429657,0.1273302 0.2631895,0.276984 0.3984495,0.4121469 0.1226401,0.1136181 0.2343954,0.2379665 0.3453203,0.3628038 0,0 0,-1.3889005 0,-1.3889005 v 0 C 7.1372342,4.9200064 7.0211802,4.8029757 6.9124089,4.6790217 6.7794685,4.5349622 6.6372654,4.3993071 6.5139594,4.2465449 6.423381,4.1372369 6.325385,4.0327219 6.2463877,3.9146241 Z" />
</svg>
