<?xml version="1.0" encoding="UTF-8" standalone="no"?>
<!-- Created with Inkscape (http://www.inkscape.org/) -->

<svg
   version="1.1"
   id="svg1"
   width="256"
   height="256"
   viewBox="0 0 256 256"
   sodipodi:docname="teku blue white icon stretch 256.svg"
   inkscape:version="1.4.2 (f4327f4, 2025-05-13)"
   inkscape:export-filename="teku blue white icon stretch 256.png"
   inkscape:export-xdpi="96"
   inkscape:export-ydpi="96"
   xmlns:inkscape="http://www.inkscape.org/namespaces/inkscape"
   xmlns:sodipodi="http://sodipodi.sourceforge.net/DTD/sodipodi-0.dtd"
   xmlns="http://www.w3.org/2000/svg"
   xmlns:svg="http://www.w3.org/2000/svg">
  <defs
     id="defs1" />
  <sodipodi:namedview
     id="namedview1"
     pagecolor="#ffffff"
     bordercolor="#000000"
     borderopacity="0.25"
     inkscape:showpageshadow="2"
     inkscape:pageopacity="0.0"
     inkscape:pagecheckerboard="false"
     inkscape:deskcolor="#d1d1d1"
     inkscape:zoom="4"
     inkscape:cx="131.625"
     inkscape:cy="119.375"
     inkscape:window-width="2560"
     inkscape:window-height="1377"
     inkscape:window-x="1592"
     inkscape:window-y="-8"
     inkscape:window-maximized="1"
     inkscape:current-layer="g1"
     showgrid="false"
     showguides="true">
    <inkscape:grid
       id="grid1"
       units="px"
       originx="0"
       originy="0"
       spacingx="1"
       spacingy="1"
       empcolor="#0099e5"
       empopacity="0.30196078"
       color="#0099e5"
       opacity="0.14901961"
       empspacing="5"
       enabled="true"
       visible="false" />
    <sodipodi:guide
       position="120.75,128"
       orientation="0,1"
       id="guide1"
       inkscape:locked="false"
       inkscape:label=""
       inkscape:color="rgb(0,134,229)" />
    <sodipodi:guide
       position="256,256"
       orientation="256,0"
       id="guide2"
       inkscape:locked="false" />
    <sodipodi:guide
       position="256,0"
       orientation="0,-256"
       id="guide3"
       inkscape:locked="false" />
    <sodipodi:guide
       position="0,0"
       orientation="-256,0"
       id="guide4"
       inkscape:locked="false" />
  </sodipodi:namedview>
  <g
     inkscape:groupmode="layer"
     inkscape:label="Image"
     id="g1">
    <g
       id="g2"
       transform="matrix(1,0,0,1.2255204,0,-28.471948)">
      <ellipse
         style="fill:#20308f;fill-opacity:1;fill-rule:evenodd;stroke-width:1.09884"
         id="path7"
         cx="153.16441"
         cy="126.14207"
         rx="126.8093"
         ry="59.914494"
         transform="matrix(0.99985157,0.01722885,-0.19931247,0.97993599,0,0)" />
      <path
         style="fill:#ffffff;fill-opacity:1;stroke-width:0.339196"
         d="m 118.08812,179.33878 c -8.18451,-0.2457 -17.1712,-0.84872 -22.047751,-1.47941 -0.652948,-0.0844 -1.797741,-0.22558 -2.543964,-0.3136 -8.95307,-1.05618 -21.905188,-3.25262 -29.340453,-4.97558 -5.609435,-1.29989 -12.550249,-3.15909 -12.550249,-3.36181 0,-0.1129 0.648709,-0.50856 1.441582,-0.87911 1.908578,-0.89194 18.305539,-9.32735 18.740573,-9.64109 0.186558,-0.13453 2.01891,-1.09556 4.071884,-2.13564 l 3.732684,-1.89105 1.524851,0.35123 c 0.838668,0.19319 1.906452,0.41705 2.372846,0.49751 0.466393,0.0805 2.069097,0.37239 3.561561,0.64874 4.61458,0.85445 15.927126,2.20057 27.474876,3.26933 5.94566,0.55029 29.24361,0.55272 34.93718,0.003 11.33664,-1.09323 20.27501,-2.5838 26.9661,-4.49688 13.9064,-3.97604 26.0833,-11.0533 36.48479,-21.20509 2.88929,-2.81989 5.91468,-6.31878 5.91468,-6.84032 0,-0.27685 -7.21548,-0.3613 -26.73058,-0.31287 l -26.7306,0.0664 -2.33792,2.338 c -5.22266,5.22281 -12.48723,10.51205 -20.77595,15.1267 l -3.81755,2.12534 -6.86713,-0.0319 c -3.77695,-0.0176 -7.63035,-0.1098 -8.56312,-0.20484 -0.9328,-0.0951 -3.29871,-0.26271 -5.25755,-0.37247 -1.95885,-0.1098 -4.01946,-0.26683 -4.57916,-0.34901 -0.55966,-0.0822 -2.54394,-0.37326 -4.40953,-0.64685 -1.86558,-0.27361 -3.62091,-0.5535 -3.90074,-0.622 -0.27986,-0.0685 -1.07485,-0.24119 -1.76668,-0.38373 l -1.25786,-0.25916 4.87452,-3.14779 c 7.28117,-4.7019 14.78151,-10.03669 20.76943,-14.77269 3.64609,-2.88379 10.67546,-9.5724 13.17908,-12.54019 1.53484,-1.81937 3.70269,-4.75299 4.69859,-6.35826 l 0.89533,-1.44318 2.79311,0.16539 c 1.53621,0.091 7.97297,0.24718 14.30392,0.34716 6.33094,0.10003 11.55918,0.2302 11.61833,0.28934 0.0592,0.0592 -0.19813,0.99599 -0.57172,2.08188 -0.3736,1.08588 -0.67927,2.10902 -0.67927,2.27364 0,0.17251 15.49878,0.20172 36.58603,0.0691 l 36.586,-0.23038 0.89518,1.8922 c 2.57632,5.44595 2.65801,13.27262 0.2007,19.23312 -0.97584,2.36703 -2.60416,5.42582 -3.39689,6.38117 -0.26833,0.32335 -1.16266,1.47184 -1.98743,2.55219 -2.14073,2.80415 -7.31929,7.60019 -11.15412,10.33017 -13.79377,9.81972 -35.31163,18.707 -58.06866,23.98346 -4.06763,0.94313 -13.95629,2.65662 -17.46859,3.02696 -1.11936,0.11802 -2.41678,0.28391 -2.88317,0.36865 -5.79318,1.05257 -23.74486,1.80989 -34.93719,1.47388 z m -81.067842,-15.0827 c -1.212625,-0.66365 -2.81533,-1.53577 -3.561559,-1.93805 -0.746232,-0.40225 -1.829109,-1.07623 -2.406387,-1.49773 -0.577289,-0.42149 -1.16693,-0.76635 -1.310328,-0.76635 -0.398456,0 -7.142262,-4.59316 -9.835675,-6.699 C 16.7293,150.871 11.259573,145.31846 9.7550613,143.04998 5.9249447,137.27504 5.1803582,129.5194 7.6832837,121.47042 l 0.8701905,-2.79839 0.9199549,-0.017 c 0.5059806,-0.01 1.5305129,-0.0681 2.2767439,-0.1303 0.746232,-0.0623 7.263892,-0.22365 14.483686,-0.35852 l 13.126913,-0.24524 0.0091,4.02193 c 0.01375,6.07127 0.685001,8.74804 3.092602,12.33222 1.422587,2.11778 4.430484,5.42714 4.932769,5.42714 0.399224,0 17.938488,-8.72596 22.527046,-11.20744 5.801986,-3.1377 12.595962,-7.0194 16.775802,-9.58481 2.067591,-1.26899 9.39892,-6.28752 10.699065,-7.32385 5.732054,-4.56894 10.854274,-9.17763 10.854274,-9.76602 0,-0.3638 -3.17414,-0.44984 -17.044597,-0.46208 -9.374568,-0.009 -21.487273,-0.0993 -26.917154,-0.20225 l -9.87254,-0.18714 -1.320938,1.12116 c -0.726526,0.61664 -2.169629,1.91188 -3.206907,2.87835 l -1.885952,1.75721 -14.904249,-0.17499 c -8.197326,-0.0962 -14.940845,-0.20506 -14.985578,-0.2418 -0.137502,-0.11294 5.681975,-4.67178 8.730835,-6.839629 4.198221,-2.985075 6.406098,-4.242543 13.135595,-7.481182 l 6.02898,-2.901516 88.190965,0.236395 88.19094,0.236398 1.52639,0.77036 c 0.8395,0.4237 2.06061,1.091131 2.71356,1.48319 0.65296,0.392052 1.64511,0.949779 2.20477,1.239389 3.18232,1.646727 11.29793,8.611095 14.1012,12.100855 l 0.99269,1.23578 -13.48287,-0.003 -13.48287,-0.003 -2.54401,-2.6758 -2.54396,-2.67577 -18.82539,-0.01 c -10.35394,-0.004 -26.18481,-0.099 -35.17967,-0.20827 l -16.35435,-0.19863 -2.64064,2.82758 c -20.62556,22.08569 -45.678338,38.18919 -92.616368,59.5323 -3.033748,1.37948 -5.857553,2.504 -6.275123,2.49894 -0.417564,-0.006 -1.751354,-0.55216 -2.96398,-1.21583 z M 120.7771,85.646199 C 120.64493,85.526615 82.02025,85.140516 64.495151,85.083592 l -7.292715,-0.02367 1.695982,-0.66943 c 5.796581,-2.288001 14.364333,-4.700641 21.030144,-5.921996 10.564541,-1.935706 17.924196,-2.192649 57.493718,-2.007256 45.18334,0.211699 48.69118,0.390295 59.69849,3.0394 4.03725,0.971634 10.18658,3.103539 13.72524,4.75838 l 2.38658,1.116079 -8.3103,0.05707 c -25.89897,0.177879 -84.02175,0.325731 -84.14519,0.214046 z"
         id="path1" />
    </g>
  </g>
</svg>
