<?xml version="1.0" encoding="UTF-8" standalone="no"?>
<!-- Created with Inkscape (http://www.inkscape.org/) -->

<svg
   version="1.1"
   id="svg1"
   width="256"
   height="256"
   viewBox="0 0 256 256"
   sodipodi:docname="teku black icon 256.svg"
   inkscape:version="1.4.2 (f4327f4, 2025-05-13)"
   inkscape:export-filename="teku icon 256.png"
   inkscape:export-xdpi="96"
   inkscape:export-ydpi="96"
   xmlns:inkscape="http://www.inkscape.org/namespaces/inkscape"
   xmlns:sodipodi="http://sodipodi.sourceforge.net/DTD/sodipodi-0.dtd"
   xmlns="http://www.w3.org/2000/svg"
   xmlns:svg="http://www.w3.org/2000/svg">
  <defs
     id="defs1" />
  <sodipodi:namedview
     id="namedview1"
     pagecolor="#ffffff"
     bordercolor="#000000"
     borderopacity="0.25"
     inkscape:showpageshadow="2"
     inkscape:pageopacity="0.0"
     inkscape:pagecheckerboard="false"
     inkscape:deskcolor="#d1d1d1"
     inkscape:zoom="4"
     inkscape:cx="178.5"
     inkscape:cy="127.125"
     inkscape:window-width="2560"
     inkscape:window-height="1377"
     inkscape:window-x="1592"
     inkscape:window-y="-8"
     inkscape:window-maximized="1"
     inkscape:current-layer="g1"
     showgrid="false"
     showguides="true">
    <inkscape:grid
       id="grid1"
       units="px"
       originx="0"
       originy="0"
       spacingx="1"
       spacingy="1"
       empcolor="#0099e5"
       empopacity="0.30196078"
       color="#0099e5"
       opacity="0.14901961"
       empspacing="5"
       enabled="true"
       visible="false" />
    <sodipodi:guide
       position="120.75,128"
       orientation="0,1"
       id="guide1"
       inkscape:locked="false"
       inkscape:label=""
       inkscape:color="rgb(0,134,229)" />
    <sodipodi:guide
       position="256,256"
       orientation="256,0"
       id="guide2"
       inkscape:locked="false" />
    <sodipodi:guide
       position="256,0"
       orientation="0,-256"
       id="guide3"
       inkscape:locked="false" />
    <sodipodi:guide
       position="0,0"
       orientation="-256,0"
       id="guide4"
       inkscape:locked="false" />
  </sodipodi:namedview>
  <g
     inkscape:groupmode="layer"
     inkscape:label="Image"
     id="g1">
    <path
       style="fill:#0000ff;stroke-width:0.310408"
       d="m 115.92936,109.05931 c -7.48987,-0.22484 -15.71384,-0.77669 -20.176505,-1.35385 -0.59753,-0.0772 -1.645162,-0.20643 -2.328052,-0.28698 -8.193203,-0.96654 -20.046046,-2.97657 -26.850263,-4.55329 -5.13335,-1.18956 -11.485082,-2.89098 -11.485082,-3.07648 0,-0.10333 0.593651,-0.46541 1.319232,-0.8045 1.746593,-0.81625 16.751907,-8.53572 17.150019,-8.82283 0.170725,-0.12312 1.84756,-1.00258 3.726294,-1.95438 l 3.415882,-1.73056 1.395434,0.32142 c 0.767489,0.17679 1.744647,0.38165 2.171458,0.45529 0.426809,0.0737 1.893487,0.34078 3.259283,0.59368 4.222931,0.78193 14.57535,2.01379 25.14302,2.99185 5.44104,0.50359 26.76164,0.50581 31.97199,0.003 10.37447,-1.00045 18.55422,-2.36451 24.67742,-4.11522 12.72614,-3.63859 23.86956,-10.11518 33.38825,-19.40537 2.64406,-2.58056 5.41268,-5.78249 5.41268,-6.25976 0,-0.25336 -6.60308,-0.33064 -24.46189,-0.28632 l -24.46192,0.0608 -2.13949,2.13957 c -4.7794,4.77954 -11.42741,9.61987 -19.01265,13.84286 l -3.49354,1.94496 -6.28431,-0.0292 c -3.45639,-0.0161 -6.98274,-0.10047 -7.83635,-0.18745 -0.85363,-0.087 -3.01873,-0.24041 -4.81132,-0.34085 -1.7926,-0.10049 -3.67833,-0.24419 -4.19052,-0.3194 -0.51217,-0.0752 -2.32804,-0.34158 -4.03528,-0.59194 -1.70725,-0.2504 -3.31361,-0.50653 -3.56968,-0.56922 -0.25611,-0.0627 -0.98363,-0.22072 -1.61674,-0.35115 l -1.1511,-0.23717 4.46081,-2.88063 c 6.66319,-4.30284 13.52697,-9.18485 19.00668,-13.5189 3.33664,-2.63904 9.76941,-8.75997 12.06054,-11.47588 1.40458,-1.66495 3.38843,-4.34959 4.29981,-5.81861 l 0.81934,-1.3207 2.55605,0.15135 c 1.40583,0.0832 7.29629,0.22621 13.08992,0.3177 5.79362,0.0915 10.57813,0.21066 10.63226,0.26478 0.0541,0.0542 -0.18132,0.91146 -0.5232,1.90519 -0.34189,0.99372 -0.62162,1.93002 -0.62162,2.08067 0,0.15787 14.18336,0.1846 33.48089,0.0632 l 33.48087,-0.21083 0.8192,1.73161 c 2.35766,4.98374 2.43242,12.14614 0.18367,17.60076 -0.89302,2.16613 -2.38314,4.96531 -3.10859,5.83958 -0.24555,0.29591 -1.06398,1.34693 -1.81876,2.33558 -1.95904,2.56616 -6.69808,6.95515 -10.20744,9.45343 -12.62306,8.98629 -32.31465,17.11929 -53.14024,21.94793 -3.7224,0.86309 -12.77179,2.43114 -15.986,2.77005 -1.02435,0.10801 -2.21166,0.25982 -2.63846,0.33737 -5.30151,0.96323 -21.72959,1.65628 -31.972,1.34879 z M 41.74193,95.25671 c -1.109706,-0.60732 -2.576387,-1.40542 -3.259281,-1.77355 -0.682897,-0.36812 -1.673868,-0.9849 -2.202152,-1.37062 -0.528293,-0.38572 -1.067889,-0.70131 -1.199117,-0.70131 -0.364638,0 -6.536083,-4.20333 -9.000899,-6.13044 -2.907388,-2.27313 -7.912887,-7.35442 -9.289707,-9.43036 -3.505046,-5.28481 -4.186438,-12.38221 -1.895942,-19.74806 l 0.796336,-2.56089 0.841876,-0.0156 c 0.463037,-0.009 1.400615,-0.0623 2.083511,-0.11924 0.682898,-0.057 6.64739,-0.20467 13.254424,-0.3281 l 12.012803,-0.22442 0.0084,3.68059 c 0.01258,5.55598 0.626864,8.00556 2.830127,11.28555 1.301848,1.93804 4.054459,4.96653 4.514113,4.96653 0.365341,0 16.416009,-7.98537 20.615126,-10.25625 5.309558,-2.87139 11.526915,-6.42365 15.352002,-8.77132 1.89211,-1.16129 8.601213,-5.75389 9.791012,-6.70226 5.245558,-4.18116 9.933038,-8.3987 9.933038,-8.93716 0,-0.33291 -2.90474,-0.41166 -15.597975,-0.42286 -8.578927,-0.008 -19.6636,-0.0909 -24.632635,-0.18508 l -9.034636,-0.17126 -1.208827,1.02601 c -0.664864,0.5643 -1.985488,1.74961 -2.934729,2.63406 L 51.79291,42.60874 38.153618,42.44859 c -7.5016,-0.088 -13.672782,-0.18765 -13.713718,-0.22127 -0.125832,-0.10335 5.199733,-4.27527 7.98983,-6.25914 3.841908,-2.73172 5.862398,-3.882464 12.020747,-6.846233 l 5.517287,-2.655257 80.705996,0.216331 80.70598,0.216335 1.39684,0.704978 c 0.76825,0.387739 1.88572,0.998524 2.48326,1.357308 0.59753,0.358778 1.50548,0.869169 2.01764,1.1342 2.91223,1.506965 10.33905,7.880258 12.9044,11.073828 l 0.90844,1.1309 -12.33855,-0.003 -12.33855,-0.003 -2.32809,-2.44869 -2.32805,-2.44868 -17.22764,-0.009 c -9.47517,-0.003 -23.96245,-0.0906 -32.1939,-0.19059 l -14.96631,-0.18178 -2.41653,2.5876 c -18.87502,20.21123 -41.801505,34.94799 -84.755799,54.47966 -2.776267,1.2624 -5.36041,2.29148 -5.74254,2.28685 -0.382125,-0.005 -1.602713,-0.5053 -2.71242,-1.11264 z m 76.6482,-71.93808 C 118.26917,23.209196 82.922655,22.855865 66.88495,22.803773 l -6.673766,-0.02166 1.55204,-0.612614 c 5.304613,-2.093814 13.1452,-4.301688 19.245269,-5.419383 9.667905,-1.771418 16.402927,-2.006555 52.614097,-1.836896 41.34853,0.193732 44.55865,0.35717 54.63175,2.781439 3.6946,0.88917 9.32202,2.840135 12.56034,4.354526 l 2.18403,1.021355 -7.60498,0.05222 c -23.70087,0.162782 -76.89064,0.298085 -77.0036,0.195879 z"
       id="path1" />
    <path
       id="path4"
       style="fill:#000000;stroke-width:0.310408"
       d="m 130.08087,95.231134 c -36.211165,-0.16966 -42.945375,0.0665 -52.61328,1.83789 -6.100069,1.11769 -13.941481,3.326106 -19.246094,5.419916 l -1.550781,0.61133 6.673828,0.0215 c 16.037705,0.0521 51.382947,0.40619 51.503907,0.51563 0.11296,0.1022 53.30303,-0.0325 77.0039,-0.19531 l 7.60547,-0.0527 -2.18359,-1.02148 c -3.23832,-1.51439 -8.86595,-3.464346 -12.56055,-4.353516 -10.0731,-2.42427 -13.28428,-2.58947 -54.63281,-2.7832 z m -83.654296,11.554686 -5.517578,2.65429 c -6.158349,2.96377 -8.177623,4.11594 -12.019531,6.84766 -2.790097,1.98387 -8.116067,6.15446 -7.990235,6.25781 0.04094,0.0336 6.211291,0.13466 13.712891,0.22266 l 13.640625,0.16015 1.724609,-1.60937 c 0.949241,-0.88445 2.270683,-2.06851 2.935547,-2.63281 l 1.208985,-1.02735 9.033203,0.17188 c 4.969035,0.0942 16.053885,0.17754 24.632812,0.18554 12.693238,0.0112 15.599608,0.089 15.599608,0.42188 0,0.53846 -4.688032,4.75634 -9.933592,8.9375 -1.1898,0.94837 -7.898906,5.54183 -9.791016,6.70312 -3.825087,2.34767 -10.042004,5.89815 -15.351562,8.76954 -4.199117,2.27088 -20.249894,10.25781 -20.615235,10.25781 -0.459654,0 -3.213777,-3.02875 -4.515625,-4.96679 -2.203263,-3.27999 -2.817498,-5.72918 -2.830078,-11.28516 l -0.0078,-3.68165 -12.011719,0.22461 c -6.607034,0.12343 -12.57296,0.27113 -13.255859,0.32813 -0.682895,0.0569 -1.618994,0.11014 -2.082031,0.11914 l -0.841797,0.0156 -0.796875,2.56055 c -2.2904963,7.36586 -1.6085622,14.46324 1.896484,19.74805 1.37682,2.07594 6.381674,7.1585 9.289062,9.43164 2.464816,1.92711 8.635362,6.12891 9,6.12891 0.131228,0 0.670926,0.31545 1.199219,0.70117 0.528284,0.38572 1.520228,1.00297 2.203125,1.37109 0.682894,0.36813 2.148107,1.16612 3.257813,1.77344 v 0.002 c 1.109708,0.60733 2.330765,1.10632 2.71289,1.11132 0.38213,0.005 2.965921,-1.02471 5.742188,-2.28711 42.954294,-19.53167 65.880838,-34.26729 84.755858,-54.47852 l 2.41797,-2.58789 14.96484,0.18164 c 8.23145,0.1 22.72015,0.18841 32.19531,0.19141 l 17.22657,0.008 2.32812,2.44922 2.32813,2.44922 12.33984,0.002 12.33789,0.004 -0.9082,-1.13086 c -2.56535,-3.19357 -9.99207,-9.56725 -12.9043,-11.07422 -0.51216,-0.26503 -1.42005,-0.77598 -2.01758,-1.13476 -0.59754,-0.35879 -1.71612,-0.96969 -2.48437,-1.35743 l -1.39649,-0.70507 -80.70508,-0.21485 z m 91.734376,14.65429 -0.81836,1.32227 c -0.91138,1.46902 -2.8962,4.15341 -4.30078,5.81836 -2.29113,2.71591 -8.72391,8.83557 -12.06055,11.47461 -5.47971,4.33405 -12.34267,9.21669 -19.00586,13.51953 l -4.460935,2.88086 1.15039,0.23633 c 0.63311,0.13043 1.361075,0.28886 1.617185,0.35156 0.25607,0.0627 1.86307,0.31991 3.57032,0.57031 1.70724,0.25036 3.52298,0.5166 4.03515,0.5918 0.51219,0.0752 2.39881,0.21787 4.19141,0.31836 1.79259,0.10044 3.95691,0.2548 4.81054,0.3418 0.85361,0.087 4.37955,0.1714 7.83594,0.1875 l 6.28516,0.0293 3.49218,-1.94531 c 7.58524,-4.22299 14.23428,-9.06421 19.01368,-13.84375 l 2.13867,-2.13867 24.46289,-0.0605 c 17.85881,-0.0443 24.46094,0.0318 24.46094,0.28516 0,0.47727 -2.76805,3.6792 -5.41211,6.25977 -9.51869,9.29018 -20.66253,15.76765 -33.38867,19.40624 -6.1232,1.75071 -14.30327,3.11479 -24.67774,4.11524 -5.21035,0.50281 -26.52966,0.49978 -31.9707,-0.004 -10.567667,-0.97806 -20.921601,-2.21025 -25.144532,-2.99218 -1.365796,-0.2529 -2.831004,-0.52005 -3.257813,-0.59375 -0.426811,-0.0736 -1.404386,-0.27829 -2.171875,-0.45508 l -1.396484,-0.32032 -3.414063,1.73047 c -1.878733,0.9518 -3.555837,1.83001 -3.726562,1.95313 -0.398112,0.28711 -15.403798,8.00797 -17.150391,8.82422 -0.714244,0.33379 -1.300208,0.68922 -1.318359,0.79883 v 0.002 0.002 h -0.002 v 0.002 c 0,0.1855 6.352978,1.88662 11.486328,3.07618 6.804217,1.57672 18.656406,3.58619 26.849609,4.55273 0.68289,0.0806 1.730595,0.20991 2.328125,0.28711 4.46267,0.57716 12.685907,1.12868 20.175777,1.35352 10.24241,0.30749 26.67115,-0.38443 31.97266,-1.34766 0.4268,-0.0776 1.61432,-0.22988 2.63867,-0.33789 3.21421,-0.33891 12.26393,-1.90644 15.98633,-2.76953 20.82559,-4.82864 40.51756,-12.96293 53.14062,-21.94922 3.50936,-2.49828 8.24799,-6.88697 10.20703,-9.45313 0.75477,-0.98865 1.57281,-2.04002 1.81836,-2.33593 0.72545,-0.87427 2.21636,-3.67372 3.10938,-5.83985 2.24875,-5.45462 2.17406,-12.61587 -0.1836,-17.59961 l -0.82031,-1.73242 -33.48047,0.21094 c -19.29753,0.1214 -33.48047,0.0954 -33.48047,-0.0625 0,-0.15065 0.27921,-1.08636 0.6211,-2.08008 0.3312,-0.96268 0.5624,-1.79794 0.52734,-1.89844 v -0.002 l -0.002,-0.002 v -0.002 l -0.002,-0.002 c -0.0541,-0.0541 -4.83919,-0.17217 -10.63281,-0.26367 -5.79363,-0.0915 -11.68401,-0.23516 -13.08984,-0.31836 z" />
    <path
       style="fill:none;fill-rule:evenodd;stroke:#000000;stroke-width:1px;stroke-linecap:butt;stroke-linejoin:miter;stroke-opacity:1"
       id="path7"
       inkscape:connector-type="polyline"
       inkscape:connector-curvature="0"
       inkscape:connection-start="#path1"
       inkscape:connection-end="#path4" />
  </g>
</svg>
