<?xml version="1.0" encoding="UTF-8" standalone="no"?>
<!-- Created with Inkscape (http://www.inkscape.org/) -->

<svg
   version="1.1"
   id="svg1"
   width="256"
   height="256"
   viewBox="0 0 256 256"
   sodipodi:docname="teku black icon 256.svg"
   inkscape:version="1.4.2 (f4327f4, 2025-05-13)"
   inkscape:export-filename="teku icon 256.png"
   inkscape:export-xdpi="96"
   inkscape:export-ydpi="96"
   xmlns:inkscape="http://www.inkscape.org/namespaces/inkscape"
   xmlns:sodipodi="http://sodipodi.sourceforge.net/DTD/sodipodi-0.dtd"
   xmlns="http://www.w3.org/2000/svg"
   xmlns:svg="http://www.w3.org/2000/svg">
  <defs
     id="defs1" />
  <sodipodi:namedview
     id="namedview1"
     pagecolor="#ffffff"
     bordercolor="#000000"
     borderopacity="0.25"
     inkscape:showpageshadow="2"
     inkscape:pageopacity="0.0"
     inkscape:pagecheckerboard="false"
     inkscape:deskcolor="#d1d1d1"
     inkscape:zoom="4"
     inkscape:cx="178.375"
     inkscape:cy="127.125"
     inkscape:window-width="2560"
     inkscape:window-height="1377"
     inkscape:window-x="1592"
     inkscape:window-y="-8"
     inkscape:window-maximized="1"
     inkscape:current-layer="g1"
     showgrid="false"
     showguides="true">
    <inkscape:grid
       id="grid1"
       units="px"
       originx="0"
       originy="0"
       spacingx="1"
       spacingy="1"
       empcolor="#0099e5"
       empopacity="0.30196078"
       color="#0099e5"
       opacity="0.14901961"
       empspacing="5"
       enabled="true"
       visible="false" />
    <sodipodi:guide
       position="120.75,128"
       orientation="0,1"
       id="guide1"
       inkscape:locked="false"
       inkscape:label=""
       inkscape:color="rgb(0,134,229)" />
    <sodipodi:guide
       position="256,256"
       orientation="256,0"
       id="guide2"
       inkscape:locked="false" />
    <sodipodi:guide
       position="256,0"
       orientation="0,-256"
       id="guide3"
       inkscape:locked="false" />
    <sodipodi:guide
       position="0,0"
       orientation="-256,0"
       id="guide4"
       inkscape:locked="false" />
  </sodipodi:namedview>
  <g
     inkscape:groupmode="layer"
     inkscape:label="Image"
     id="g1">
    <path
       style="fill:#000000;stroke-width:0.356509"
       d="m 117.58222,182.04842 c -8.60225,-0.25824 -18.047618,-0.89204 -23.173063,-1.55492 -0.686274,-0.0887 -1.889497,-0.23709 -2.673807,-0.3296 -9.410033,-1.11009 -23.023225,-3.41864 -30.837984,-5.22954 -5.89574,-1.36623 -13.190812,-3.32033 -13.190812,-3.53339 0,-0.11867 0.681819,-0.53452 1.515161,-0.92398 2.005991,-0.93747 19.23985,-9.80342 19.697088,-10.13317 0.19608,-0.1414 2.121954,-1.15148 4.279712,-2.24464 l 3.923199,-1.98757 1.602679,0.36915 c 0.881474,0.20305 2.003757,0.43834 2.493956,0.52291 0.490198,0.0846 2.174703,0.39139 3.743342,0.68185 4.850108,0.89806 16.740039,2.31288 28.877189,3.43619 6.24912,0.57838 30.7362,0.58094 36.72037,0.003 11.91526,-1.14903 21.30984,-2.71568 28.34244,-4.7264 14.61618,-4.17898 27.41459,-11.61746 38.34697,-22.28739 3.03675,-2.96382 6.21656,-6.64129 6.21656,-7.18945 0,-0.29098 -7.58376,-0.37974 -28.0949,-0.32884 l -28.09493,0.0698 -2.45724,2.45733 c -5.48923,5.48938 -13.12458,11.04858 -21.83636,15.89876 l -4.01239,2.23382 -7.21763,-0.0335 c -3.96972,-0.0185 -8.0198,-0.1154 -9.00018,-0.21529 -0.98041,-0.0999 -3.46707,-0.27612 -5.52589,-0.39148 -2.05883,-0.11541 -4.22462,-0.28045 -4.81288,-0.36683 -0.58823,-0.0864 -2.67379,-0.39231 -4.63459,-0.67986 -1.9608,-0.28758 -3.80573,-0.58175 -4.09984,-0.65375 -0.29414,-0.072 -1.12971,-0.2535 -1.85685,-0.40331 l -1.32206,-0.27239 5.12332,-3.30845 c 7.65279,-4.94189 15.53595,-10.54896 21.82949,-15.52669 3.83219,-3.03098 11.22034,-10.06097 13.85174,-13.18024 1.61318,-1.91223 3.89167,-4.99558 4.93841,-6.68278 l 0.94102,-1.51684 2.93567,0.17383 c 1.61462,0.0956 8.37991,0.2598 15.03399,0.36488 6.65407,0.10514 12.14916,0.24195 12.21133,0.30411 0.0622,0.0622 -0.20824,1.04682 -0.6009,2.18814 -0.39267,1.1413 -0.71394,2.21666 -0.71394,2.38968 0,0.18132 16.28983,0.21202 38.45337,0.0726 l 38.45335,-0.24214 0.94086,1.98878 c 2.70782,5.72391 2.79368,13.95005 0.21095,20.21477 -1.02565,2.48784 -2.73708,5.70275 -3.57027,6.70686 -0.28202,0.33986 -1.222,1.54697 -2.08887,2.68246 -2.24999,2.94727 -7.69286,7.9881 -11.72342,10.85742 -14.4978,10.32091 -37.11393,19.6618 -61.03247,25.20757 -4.27524,0.99127 -14.66862,2.79221 -18.36019,3.18145 -1.17649,0.12405 -2.54013,0.29841 -3.03032,0.38747 -6.08887,1.10629 -24.9568,1.90227 -36.72038,1.54911 z M 32.376692,166.1959 c -1.274517,-0.69752 -2.959024,-1.61415 -3.74334,-2.03696 -0.784319,-0.42279 -1.922466,-1.13117 -2.529209,-1.57418 -0.606753,-0.443 -1.226489,-0.80546 -1.377206,-0.80546 -0.418793,0 -7.506802,-4.8276 -10.337686,-7.04092 -3.339184,-2.61073 -9.088085,-8.44667 -10.6693863,-10.83093 -4.025605,-6.06969 -4.8081951,-14.22118 -2.1775208,-22.68098 l 0.9146049,-2.94122 0.9669092,-0.0179 c 0.5318059,-0.0101 1.6086296,-0.0716 2.3929481,-0.13695 0.7843195,-0.0655 7.6346399,-0.23506 15.2229309,-0.37682 l 13.796908,-0.25775 0.0096,4.22721 c 0.01445,6.38114 0.719963,9.19453 3.250448,12.96165 1.495195,2.22587 4.656615,5.70414 5.184536,5.70414 0.4196,0 18.854065,-9.17133 23.676822,-11.77947 6.098118,-3.29784 13.238858,-7.37767 17.632036,-10.07401 2.17312,-1.33376 9.878639,-6.60844 11.245143,-7.69766 6.02461,-4.80214 11.40827,-9.64605 11.40827,-10.26448 0,-0.38236 -3.33615,-0.4728 -17.914546,-0.48566 -9.853044,-0.009 -22.583979,-0.104369 -28.291,-0.212569 l -10.376433,-0.1967 -1.388358,1.178389 c -0.763608,0.64811 -2.280367,2.00946 -3.370587,3.02526 l -1.982211,1.8469 -15.664959,-0.18393 c -8.615715,-0.1011 -15.703422,-0.21552 -15.750438,-0.25414 -0.14452,-0.1187 5.971982,-4.91022 9.176455,-7.188719 4.412497,-3.137432 6.733064,-4.459081 13.806033,-7.86302 l 6.336698,-3.049608 92.692206,0.24846 92.69219,0.248464 1.6043,0.809679 c 0.88235,0.445325 2.16578,1.146822 2.85206,1.558891 0.68628,0.412063 1.72907,0.998256 2.3173,1.302648 3.34474,1.730775 11.87457,9.050605 14.82092,12.718485 l 1.04336,1.29885 -14.17104,-0.003 -14.17103,-0.003 -2.67385,-2.81237 -2.67381,-2.812349 -19.78623,-0.01 c -10.8824,-0.004 -27.52128,-0.10403 -36.97524,-0.2189 l -17.18907,-0.20877 -2.77542,2.971899 c -21.67828,23.21294 -48.009742,40.13836 -97.343479,62.57082 -3.18859,1.44988 -6.156522,2.6318 -6.595405,2.62648 -0.438876,-0.006 -1.840742,-0.58034 -3.11526,-1.27788 z M 120.40845,83.573789 C 120.26953,83.448102 79.673454,83.042296 61.253877,82.982467 l -7.664933,-0.02488 1.782544,-0.703598 c 6.092438,-2.40478 15.097486,-4.940561 22.103519,-6.224253 11.103753,-2.034504 18.839043,-2.304562 60.428183,-2.109706 47.48949,0.222504 51.17637,0.410215 62.74549,3.19453 4.24331,1.021226 10.7065,3.261943 14.42577,5.001247 l 2.50839,1.173043 -8.73445,0.05998 c -27.22085,0.186958 -88.3102,0.342356 -88.43994,0.224971 z"
       id="path1" />
  </g>
</svg>
